G04*
G04 #@! TF.GenerationSoftware,Altium Limited,Altium Designer,26.3.0 (6)*
G04*
G04 Layer_Physical_Order=1*
G04 Layer_Color=255*
%FSLAX25Y25*%
%MOIN*%
G70*
G04*
G04 #@! TF.SameCoordinates,9AFBF1FA-C3BB-45B3-99B6-A969387FD467*
G04*
G04*
G04 #@! TF.FilePolarity,Positive*
G04*
G01*
G75*
%ADD12C,0.00500*%
%ADD13C,0.01000*%
%ADD15R,0.04500X0.01200*%
%ADD16R,0.03567X0.05157*%
%ADD17R,0.06127X0.04942*%
%ADD18R,0.01968X0.01968*%
%ADD19R,0.06102X0.05315*%
%ADD20R,0.01713X0.05906*%
%ADD21R,0.05512X0.03740*%
G04:AMPARAMS|DCode=22|XSize=49.61mil|YSize=23.23mil|CornerRadius=5.81mil|HoleSize=0mil|Usage=FLASHONLY|Rotation=180.000|XOffset=0mil|YOffset=0mil|HoleType=Round|Shape=RoundedRectangle|*
%AMROUNDEDRECTD22*
21,1,0.04961,0.01161,0,0,180.0*
21,1,0.03799,0.02323,0,0,180.0*
1,1,0.01161,-0.01900,0.00581*
1,1,0.01161,0.01900,0.00581*
1,1,0.01161,0.01900,-0.00581*
1,1,0.01161,-0.01900,-0.00581*
%
%ADD22ROUNDEDRECTD22*%
G04:AMPARAMS|DCode=23|XSize=49.61mil|YSize=38.98mil|CornerRadius=9.74mil|HoleSize=0mil|Usage=FLASHONLY|Rotation=180.000|XOffset=0mil|YOffset=0mil|HoleType=Round|Shape=RoundedRectangle|*
%AMROUNDEDRECTD23*
21,1,0.04961,0.01949,0,0,180.0*
21,1,0.03012,0.03898,0,0,180.0*
1,1,0.01949,-0.01506,0.00974*
1,1,0.01949,0.01506,0.00974*
1,1,0.01949,0.01506,-0.00974*
1,1,0.01949,-0.01506,-0.00974*
%
%ADD23ROUNDEDRECTD23*%
%ADD24R,0.03543X0.04724*%
%ADD25R,0.04331X0.02756*%
%ADD26R,0.05339X0.03367*%
%ADD27R,0.03661X0.03543*%
%ADD28R,0.03071X0.04134*%
%ADD29R,0.13110X0.02756*%
%ADD30R,0.11024X0.03386*%
%ADD31R,0.07205X0.04488*%
%ADD42C,0.02600*%
%ADD43O,0.08700X0.04400*%
%ADD44O,0.07500X0.04400*%
%ADD46R,0.00500X0.00500*%
%ADD47C,0.02000*%
%ADD48C,0.00800*%
%ADD49C,0.02500*%
%ADD50C,0.03000*%
%ADD51C,0.02362*%
G36*
X103500Y61000D02*
X95000D01*
Y67000D01*
X103500D01*
Y61000D01*
D02*
G37*
G36*
X181500Y9000D02*
X150500D01*
Y20000D01*
X181500D01*
Y9000D01*
D02*
G37*
G36*
X168000Y73000D02*
X156000D01*
Y78500D01*
X168000D01*
Y73000D01*
D02*
G37*
G36*
X197250Y40117D02*
Y37717D01*
X192750D01*
Y40117D01*
X197250D01*
D02*
G37*
G36*
Y40886D02*
X192750D01*
Y43286D01*
X197250D01*
Y40886D01*
D02*
G37*
G36*
X192750Y59807D02*
Y62207D01*
X197250D01*
Y59807D01*
X192750D01*
D02*
G37*
G36*
Y62976D02*
Y65376D01*
X197250D01*
Y62976D01*
X192750D01*
D02*
G37*
D12*
X195000Y52531D02*
X195119Y52412D01*
X197768D01*
X198500Y51680D01*
Y49444D02*
Y51680D01*
X197768Y48712D02*
X198500Y49444D01*
X195119Y48712D02*
X197768D01*
X195000Y48593D02*
X195119Y48712D01*
X194881Y50681D02*
X195000Y50562D01*
X192232Y50681D02*
X194881D01*
X191500Y51413D02*
X192232Y50681D01*
X191500Y51413D02*
Y53649D01*
X192232Y54381D01*
D13*
X125819Y24991D02*
Y30889D01*
X125856Y34352D02*
X126004Y34500D01*
X125819Y30889D02*
X125856Y30926D01*
Y34352D01*
X125000Y24172D02*
X125819Y24991D01*
X128500Y25000D02*
Y34500D01*
X123360Y34360D02*
X123500Y34500D01*
X90445Y15000D02*
Y15795D01*
X123360Y25360D02*
Y34360D01*
X111750Y13750D02*
X123360Y25360D01*
X131500Y22500D02*
Y27342D01*
X131004Y27838D02*
X131500Y27342D01*
X131004Y27838D02*
Y34500D01*
X133648Y30439D02*
X135500Y28587D01*
Y28500D02*
Y28587D01*
X133648Y30439D02*
Y34352D01*
X181048Y58438D02*
X195000D01*
X155449Y65211D02*
Y65604D01*
X145738Y55500D02*
X155449Y65211D01*
Y65604D02*
X157606Y67762D01*
X158000D01*
X143500Y55500D02*
X145738D01*
X138760D02*
X143869D01*
X116000Y57000D02*
X119213Y60213D01*
X124978D01*
X125856Y59334D01*
Y55907D02*
Y59334D01*
Y55907D02*
X126004Y55760D01*
X117138Y62319D02*
X125700D01*
X128360Y55900D02*
Y59658D01*
X111394Y68063D02*
X117138Y62319D01*
X125700D02*
X128360Y59658D01*
X158595Y49772D02*
Y50414D01*
X143414Y45414D02*
X149000Y51000D01*
X158009D01*
X158595Y50414D01*
Y49772D02*
X159866Y48500D01*
X126258Y45414D02*
X143414D01*
X121144Y52186D02*
X121252Y52078D01*
X121004Y55760D02*
X121144Y55620D01*
Y52186D02*
Y55620D01*
X121252Y50421D02*
Y52078D01*
Y50421D02*
X126258Y45414D01*
X168227Y48593D02*
X195000D01*
X168134Y48500D02*
X168227Y48593D01*
X167500Y41193D02*
Y47866D01*
X168134Y48500D01*
X137500Y61500D02*
X138500Y62500D01*
Y55760D02*
X138760Y55500D01*
X111000Y68063D02*
X111394D01*
X119000Y65000D02*
Y69032D01*
X128360Y55900D02*
X128500Y55760D01*
X91728Y17078D02*
X92125D01*
X90445Y15795D02*
X91728Y17078D01*
X92125D02*
X94125Y19078D01*
X102164D01*
X90445Y15000D02*
Y15795D01*
X84224Y22016D02*
X90445Y15795D01*
X112500Y29000D02*
Y34000D01*
X102922Y43578D02*
X112500Y34000D01*
X97821Y43578D02*
X102922D01*
X90445Y50955D02*
X97821Y43578D01*
X90445Y50955D02*
Y51750D01*
X82000Y48000D02*
X85750Y51750D01*
X90445D01*
X63500Y52331D02*
X72831D01*
X84500Y64000D01*
X90445D01*
Y59086D02*
X91030Y58500D01*
X90445Y59086D02*
Y64000D01*
X91030Y58500D02*
X98500D01*
X173287Y37287D02*
X173500Y37500D01*
X170819Y37287D02*
X173287D01*
X168032Y34500D02*
X170819Y37287D01*
X167500Y34500D02*
X168032D01*
X185500Y39414D02*
X188586Y42500D01*
X185500Y30000D02*
Y39414D01*
X161000Y29500D02*
Y33057D01*
X160345Y33713D02*
X161000Y33057D01*
X159783Y33713D02*
X160345D01*
X188586Y42500D02*
X194814D01*
X195000Y42686D01*
X138105Y67762D02*
X138500Y67367D01*
Y62500D02*
Y67367D01*
X136004Y60004D02*
X137500Y61500D01*
X136004Y55760D02*
Y60004D01*
X130856Y55907D02*
X131004Y55760D01*
X130856Y55907D02*
Y60173D01*
X127500Y63529D02*
X130856Y60173D01*
X127500Y63529D02*
Y67500D01*
X126908Y75575D02*
X127500D01*
X124301Y72969D02*
X126908Y75575D01*
X119000Y72969D02*
X124301D01*
X116000Y34500D02*
X121004D01*
X133500D02*
X133648Y34352D01*
X75073Y35254D02*
X75319Y35500D01*
X63500Y35008D02*
X63746Y35254D01*
X75073D01*
X112000Y22319D02*
Y22500D01*
X101039Y33461D02*
X112000Y22500D01*
X95689Y33461D02*
X101039D01*
X107493Y13750D02*
X111750D01*
X102164Y19078D02*
X107493Y13750D01*
X105784Y21716D02*
X109500Y18000D01*
X95184Y21716D02*
X105784D01*
X138500Y30000D02*
Y34500D01*
Y30000D02*
X141000Y27500D01*
X63500Y39339D02*
X63581Y39419D01*
X178000Y60500D02*
X178986D01*
X181048Y58438D01*
X125000Y18000D02*
Y24172D01*
X90445Y26455D02*
X95184Y21716D01*
X63500Y22016D02*
X84224D01*
X89541Y26346D02*
X90445Y27250D01*
X87169Y39500D02*
X90445D01*
X83000Y43669D02*
X87169Y39500D01*
X63500Y48000D02*
X82000D01*
X63500Y26346D02*
X89541D01*
X63500Y43669D02*
X83000D01*
X115713Y41287D02*
X132643D01*
X135856Y38074D01*
X98500Y58500D02*
X115713Y41287D01*
X135856Y34648D02*
X136004Y34500D01*
X135856Y34648D02*
Y38074D01*
X90445Y26455D02*
Y27250D01*
Y38705D02*
Y39500D01*
Y38705D02*
X95689Y33461D01*
X127087Y47414D02*
X142586D01*
X123252Y51249D02*
X127087Y47414D01*
X123252Y51249D02*
Y52078D01*
X123360Y52186D01*
Y55620D01*
X123500Y55760D01*
X158009Y53000D02*
X158595Y53586D01*
Y54228D02*
X159866Y55500D01*
X148172Y53000D02*
X158009D01*
X158595Y53586D02*
Y54228D01*
X142586Y47414D02*
X148172Y53000D01*
X168134Y54909D02*
Y55500D01*
X164288Y51064D02*
X168134Y54909D01*
X164288Y46667D02*
Y51064D01*
X161476Y43854D02*
X164288Y46667D01*
X161476Y41848D02*
Y43854D01*
X160820Y41193D02*
X161476Y41848D01*
X159783Y41193D02*
X160820D01*
X168134Y55500D02*
X169134Y54500D01*
X195000D01*
D15*
Y56469D02*
D03*
Y44655D02*
D03*
Y52531D02*
D03*
Y48593D02*
D03*
Y54500D02*
D03*
Y50562D02*
D03*
Y58438D02*
D03*
Y46624D02*
D03*
D16*
X96555Y39500D02*
D03*
X90445D02*
D03*
X96555Y51750D02*
D03*
X90445D02*
D03*
Y15000D02*
D03*
X96555D02*
D03*
Y64000D02*
D03*
X90445D02*
D03*
Y27250D02*
D03*
X96555D02*
D03*
D17*
X127500Y75575D02*
D03*
Y67500D02*
D03*
D18*
X119000Y72969D02*
D03*
Y69032D02*
D03*
D19*
X111000Y75937D02*
D03*
Y68063D02*
D03*
X154500Y25000D02*
D03*
Y17126D02*
D03*
X138105Y75636D02*
D03*
Y67762D02*
D03*
X158000D02*
D03*
Y75636D02*
D03*
D20*
X121004Y55760D02*
D03*
X123500D02*
D03*
X128500D02*
D03*
X131004D02*
D03*
X133500D02*
D03*
X138500D02*
D03*
X123500Y34500D02*
D03*
X126004D02*
D03*
X138500D02*
D03*
X136004D02*
D03*
X128500D02*
D03*
X133500D02*
D03*
X131004D02*
D03*
X121004D02*
D03*
X126004Y55760D02*
D03*
X136004D02*
D03*
D21*
X166500Y25142D02*
D03*
Y17858D02*
D03*
X148000Y75142D02*
D03*
Y67858D02*
D03*
D22*
X167500Y41193D02*
D03*
X159783D02*
D03*
Y33713D02*
D03*
D23*
X167500Y34500D02*
D03*
D24*
X159866Y48500D02*
D03*
X168134D02*
D03*
X159866Y55500D02*
D03*
X168134D02*
D03*
D25*
X63500Y30677D02*
D03*
Y52331D02*
D03*
Y48000D02*
D03*
Y43669D02*
D03*
Y39339D02*
D03*
Y35008D02*
D03*
Y26346D02*
D03*
Y22016D02*
D03*
D26*
X178000Y67000D02*
D03*
X178500Y17750D02*
D03*
Y24250D02*
D03*
X178000Y60500D02*
D03*
D27*
X14425Y59378D02*
D03*
D28*
X14130Y42587D02*
D03*
D29*
X19150Y17449D02*
D03*
Y68472D02*
D03*
D30*
X61532Y17764D02*
D03*
D31*
X63441Y67606D02*
D03*
D42*
X199295Y40168D02*
D03*
Y62924D02*
D03*
D43*
X197327Y34539D02*
D03*
Y68554D02*
D03*
D44*
X213665Y34538D02*
D03*
Y68555D02*
D03*
D46*
X195000Y38317D02*
D03*
Y64776D02*
D03*
Y63576D02*
D03*
Y39517D02*
D03*
Y41486D02*
D03*
Y61607D02*
D03*
Y60407D02*
D03*
Y42686D02*
D03*
D47*
X187500Y62500D02*
X187569Y62431D01*
X190467D01*
X191898Y61000D01*
X195000D01*
X197327Y34539D02*
X197327Y34539D01*
X213665D01*
X213665Y34538D01*
X187027Y68527D02*
X197300D01*
X213665Y34538D02*
Y68555D01*
X196109Y34539D02*
X197327D01*
X195000Y35647D02*
X196109Y34539D01*
X195000Y35647D02*
Y38317D01*
X196109Y68554D02*
X197327D01*
X195000Y67446D02*
X196109Y68554D01*
X195000Y64776D02*
Y67446D01*
X197300Y68527D02*
X197327Y68554D01*
X187000Y68500D02*
X187027Y68527D01*
X213665Y68554D02*
X213665Y68555D01*
X197327Y68554D02*
X213665D01*
X197327Y68554D02*
X197327Y68554D01*
X141000Y27500D02*
X141098D01*
X143598Y25000D01*
X154500D01*
X154571Y25071D01*
X166429D01*
X166500Y25142D01*
X147952Y67810D02*
X148000Y67858D01*
X138154Y67810D02*
X147952D01*
X138105Y67762D02*
X138154Y67810D01*
X101500Y76000D02*
X101532Y75968D01*
X110968D01*
X111000Y75937D01*
X138000Y75741D02*
Y82000D01*
Y75741D02*
X138105Y75636D01*
X148000Y75142D02*
Y80000D01*
X166402Y75500D02*
X166500D01*
X166266Y75636D02*
X166402Y75500D01*
X158000Y75636D02*
X166266D01*
X178000Y67000D02*
Y72000D01*
D48*
X187124Y46624D02*
X195000D01*
X178500Y38000D02*
X187124Y46624D01*
X178500Y25500D02*
Y38000D01*
D49*
X63500Y30677D02*
X75177D01*
X63581Y39419D02*
X78919D01*
D50*
X101647Y28328D02*
X101788Y28469D01*
X96555Y28045D02*
X96839Y28328D01*
X96555Y27250D02*
Y28045D01*
X96839Y28328D02*
X101647D01*
X96839Y50672D02*
Y51466D01*
X96555Y51750D02*
X96839Y51466D01*
X100011Y47500D02*
X102000D01*
X96839Y50672D02*
X100011Y47500D01*
X96555Y39500D02*
X102000D01*
X96555Y15000D02*
X102000D01*
D51*
X179000Y11000D02*
D03*
X166500Y10500D02*
D03*
X128500Y25000D02*
D03*
X131500Y22500D02*
D03*
X187500Y62500D02*
D03*
X143500Y55500D02*
D03*
X116000Y57000D02*
D03*
X137500Y61500D02*
D03*
X119000Y65000D02*
D03*
X101500Y76000D02*
D03*
X138000Y82000D02*
D03*
X148000Y80000D02*
D03*
X166500Y75500D02*
D03*
X178000Y72000D02*
D03*
X187000Y68500D02*
D03*
X154500Y11000D02*
D03*
X173500Y37500D02*
D03*
X185500Y30000D02*
D03*
X161000Y29500D02*
D03*
X116000Y34500D02*
D03*
X75177Y30677D02*
D03*
X75319Y35500D02*
D03*
X112000Y22319D02*
D03*
X101788Y28469D02*
D03*
X102000Y10500D02*
D03*
Y47500D02*
D03*
Y39500D02*
D03*
Y15000D02*
D03*
Y64000D02*
D03*
X109500Y18000D02*
D03*
X135500Y28500D02*
D03*
X141000Y27500D02*
D03*
X79000Y39500D02*
D03*
X125000Y18000D02*
D03*
X112500Y29000D02*
D03*
M02*
