G04*
G04 #@! TF.GenerationSoftware,Altium Limited,Altium Designer,26.3.0 (6)*
G04*
G04 Layer_Physical_Order=4*
G04 Layer_Color=16711680*
%FSLAX25Y25*%
%MOIN*%
G70*
G04*
G04 #@! TF.SameCoordinates,9AFBF1FA-C3BB-45B3-99B6-A969387FD467*
G04*
G04*
G04 #@! TF.FilePolarity,Positive*
G04*
G01*
G75*
%ADD13C,0.01000*%
%ADD42C,0.02600*%
%ADD43O,0.08700X0.04400*%
%ADD44O,0.07500X0.04400*%
%ADD51C,0.02362*%
D13*
X85819Y25000D02*
X128500D01*
X131319Y22319D02*
X131500Y22500D01*
X112000Y22319D02*
X131319D01*
X75319Y35500D02*
X85819Y25000D01*
X109500Y18000D02*
X125000D01*
X112500Y29000D02*
X134631D01*
X135131Y28500D02*
X135500D01*
X134631Y29000D02*
X135131Y28500D01*
D42*
X199295Y40168D02*
D03*
Y62924D02*
D03*
D43*
X197327Y34539D02*
D03*
Y68554D02*
D03*
D44*
X213665Y34538D02*
D03*
Y68555D02*
D03*
D51*
X179000Y11000D02*
D03*
X166500Y10500D02*
D03*
X128500Y25000D02*
D03*
X131500Y22500D02*
D03*
X187500Y62500D02*
D03*
X143500Y55500D02*
D03*
X116000Y57000D02*
D03*
X137500Y61500D02*
D03*
X119000Y65000D02*
D03*
X101500Y76000D02*
D03*
X138000Y82000D02*
D03*
X148000Y80000D02*
D03*
X166500Y75500D02*
D03*
X178000Y72000D02*
D03*
X187000Y68500D02*
D03*
X154500Y11000D02*
D03*
X173500Y37500D02*
D03*
X185500Y30000D02*
D03*
X161000Y29500D02*
D03*
X116000Y34500D02*
D03*
X75177Y30677D02*
D03*
X75319Y35500D02*
D03*
X112000Y22319D02*
D03*
X101788Y28469D02*
D03*
X102000Y10500D02*
D03*
Y47500D02*
D03*
Y39500D02*
D03*
Y15000D02*
D03*
Y64000D02*
D03*
X109500Y18000D02*
D03*
X135500Y28500D02*
D03*
X141000Y27500D02*
D03*
X79000Y39500D02*
D03*
X125000Y18000D02*
D03*
X112500Y29000D02*
D03*
M02*
