G04*
G04 #@! TF.GenerationSoftware,Altium Limited,Altium Designer,26.3.0 (6)*
G04*
G04 Layer_Color=8388736*
%FSLAX25Y25*%
%MOIN*%
G70*
G04*
G04 #@! TF.SameCoordinates,9AFBF1FA-C3BB-45B3-99B6-A969387FD467*
G04*
G04*
G04 #@! TF.FilePolarity,Negative*
G04*
G01*
G75*
%ADD15R,0.04500X0.01200*%
%ADD16R,0.03567X0.05157*%
%ADD17R,0.06127X0.04942*%
%ADD18R,0.01968X0.01968*%
%ADD21R,0.05512X0.03740*%
%ADD24R,0.03543X0.04724*%
%ADD26R,0.05339X0.03367*%
%ADD32R,0.06902X0.06115*%
%ADD33R,0.02513X0.06706*%
G04:AMPARAMS|DCode=34|XSize=57.61mil|YSize=31.23mil|CornerRadius=9.81mil|HoleSize=0mil|Usage=FLASHONLY|Rotation=180.000|XOffset=0mil|YOffset=0mil|HoleType=Round|Shape=RoundedRectangle|*
%AMROUNDEDRECTD34*
21,1,0.05761,0.01161,0,0,180.0*
21,1,0.03799,0.03123,0,0,180.0*
1,1,0.01961,-0.01900,0.00581*
1,1,0.01961,0.01900,0.00581*
1,1,0.01961,0.01900,-0.00581*
1,1,0.01961,-0.01900,-0.00581*
%
%ADD34ROUNDEDRECTD34*%
G04:AMPARAMS|DCode=35|XSize=57.61mil|YSize=46.98mil|CornerRadius=13.74mil|HoleSize=0mil|Usage=FLASHONLY|Rotation=180.000|XOffset=0mil|YOffset=0mil|HoleType=Round|Shape=RoundedRectangle|*
%AMROUNDEDRECTD35*
21,1,0.05761,0.01949,0,0,180.0*
21,1,0.03012,0.04698,0,0,180.0*
1,1,0.02749,-0.01506,0.00974*
1,1,0.02749,0.01506,0.00974*
1,1,0.02749,0.01506,-0.00974*
1,1,0.02749,-0.01506,-0.00974*
%
%ADD35ROUNDEDRECTD35*%
%ADD36R,0.05131X0.03556*%
%ADD37R,0.04461X0.04343*%
%ADD38R,0.03871X0.04934*%
%ADD39R,0.13910X0.03556*%
%ADD40R,0.11824X0.04186*%
%ADD41R,0.08005X0.05288*%
%ADD42C,0.02600*%
%ADD43O,0.08700X0.04400*%
%ADD44O,0.07500X0.04400*%
%ADD45C,0.03162*%
G36*
X197250Y40117D02*
Y37717D01*
X192750D01*
Y40117D01*
X197250D01*
D02*
G37*
G36*
Y40886D02*
X192750D01*
Y43286D01*
X197250D01*
Y40886D01*
D02*
G37*
G36*
X192750Y59807D02*
Y62207D01*
X197250D01*
Y59807D01*
X192750D01*
D02*
G37*
G36*
Y62976D02*
Y65376D01*
X197250D01*
Y62976D01*
X192750D01*
D02*
G37*
D15*
X195000Y56469D02*
D03*
Y44655D02*
D03*
Y52531D02*
D03*
Y48593D02*
D03*
Y54500D02*
D03*
Y50562D02*
D03*
Y58438D02*
D03*
Y46624D02*
D03*
D16*
X96555Y39500D02*
D03*
X90445D02*
D03*
X96555Y51750D02*
D03*
X90445D02*
D03*
Y15000D02*
D03*
X96555D02*
D03*
Y64000D02*
D03*
X90445D02*
D03*
Y27250D02*
D03*
X96555D02*
D03*
D17*
X127500Y75575D02*
D03*
Y67500D02*
D03*
D18*
X119000Y72969D02*
D03*
Y69032D02*
D03*
D21*
X166500Y25142D02*
D03*
Y17858D02*
D03*
X148000Y75142D02*
D03*
Y67858D02*
D03*
D24*
X159866Y48500D02*
D03*
X168134D02*
D03*
X159866Y55500D02*
D03*
X168134D02*
D03*
D26*
X178000Y67000D02*
D03*
X178500Y17750D02*
D03*
Y24250D02*
D03*
X178000Y60500D02*
D03*
D32*
X111000Y75937D02*
D03*
Y68063D02*
D03*
X154500Y25000D02*
D03*
Y17126D02*
D03*
X138105Y75636D02*
D03*
Y67762D02*
D03*
X158000D02*
D03*
Y75636D02*
D03*
D33*
X121004Y55760D02*
D03*
X123500D02*
D03*
X128500D02*
D03*
X131004D02*
D03*
X133500D02*
D03*
X138500D02*
D03*
X123500Y34500D02*
D03*
X126004D02*
D03*
X138500D02*
D03*
X136004D02*
D03*
X128500D02*
D03*
X133500D02*
D03*
X131004D02*
D03*
X121004D02*
D03*
X126004Y55760D02*
D03*
X136004D02*
D03*
D34*
X167500Y41193D02*
D03*
X159783D02*
D03*
Y33713D02*
D03*
D35*
X167500Y34500D02*
D03*
D36*
X63500Y30677D02*
D03*
Y52331D02*
D03*
Y48000D02*
D03*
Y43669D02*
D03*
Y39339D02*
D03*
Y35008D02*
D03*
Y26346D02*
D03*
Y22016D02*
D03*
D37*
X14425Y59378D02*
D03*
D38*
X14130Y42587D02*
D03*
D39*
X19150Y17449D02*
D03*
Y68472D02*
D03*
D40*
X61532Y17764D02*
D03*
D41*
X63441Y67606D02*
D03*
D42*
X199295Y40168D02*
D03*
Y62924D02*
D03*
D43*
X197327Y34539D02*
D03*
Y68554D02*
D03*
D44*
X213665Y34538D02*
D03*
Y68555D02*
D03*
D45*
X179000Y11000D02*
D03*
X166500Y10500D02*
D03*
X128500Y25000D02*
D03*
X131500Y22500D02*
D03*
X187500Y62500D02*
D03*
X143500Y55500D02*
D03*
X116000Y57000D02*
D03*
X137500Y61500D02*
D03*
X119000Y65000D02*
D03*
X101500Y76000D02*
D03*
X138000Y82000D02*
D03*
X148000Y80000D02*
D03*
X166500Y75500D02*
D03*
X178000Y72000D02*
D03*
X187000Y68500D02*
D03*
X154500Y11000D02*
D03*
X173500Y37500D02*
D03*
X185500Y30000D02*
D03*
X161000Y29500D02*
D03*
X116000Y34500D02*
D03*
X75177Y30677D02*
D03*
X75319Y35500D02*
D03*
X112000Y22319D02*
D03*
X101788Y28469D02*
D03*
X102000Y10500D02*
D03*
Y47500D02*
D03*
Y39500D02*
D03*
Y15000D02*
D03*
Y64000D02*
D03*
X109500Y18000D02*
D03*
X135500Y28500D02*
D03*
X141000Y27500D02*
D03*
X79000Y39500D02*
D03*
X125000Y18000D02*
D03*
X112500Y29000D02*
D03*
M02*
