G04*
G04 #@! TF.GenerationSoftware,Altium Limited,Altium Designer,26.3.0 (6)*
G04*
G04 Layer_Color=8421504*
%FSLAX25Y25*%
%MOIN*%
G70*
G04*
G04 #@! TF.SameCoordinates,9AFBF1FA-C3BB-45B3-99B6-A969387FD467*
G04*
G04*
G04 #@! TF.FilePolarity,Positive*
G04*
G01*
G75*
%ADD15R,0.04500X0.01200*%
%ADD16R,0.03567X0.05157*%
%ADD17R,0.06127X0.04942*%
%ADD18R,0.01968X0.01968*%
%ADD19R,0.06102X0.05315*%
%ADD20R,0.01713X0.05906*%
%ADD21R,0.05512X0.03740*%
G04:AMPARAMS|DCode=22|XSize=49.61mil|YSize=23.23mil|CornerRadius=5.81mil|HoleSize=0mil|Usage=FLASHONLY|Rotation=180.000|XOffset=0mil|YOffset=0mil|HoleType=Round|Shape=RoundedRectangle|*
%AMROUNDEDRECTD22*
21,1,0.04961,0.01161,0,0,180.0*
21,1,0.03799,0.02323,0,0,180.0*
1,1,0.01161,-0.01900,0.00581*
1,1,0.01161,0.01900,0.00581*
1,1,0.01161,0.01900,-0.00581*
1,1,0.01161,-0.01900,-0.00581*
%
%ADD22ROUNDEDRECTD22*%
G04:AMPARAMS|DCode=23|XSize=49.61mil|YSize=38.98mil|CornerRadius=9.74mil|HoleSize=0mil|Usage=FLASHONLY|Rotation=180.000|XOffset=0mil|YOffset=0mil|HoleType=Round|Shape=RoundedRectangle|*
%AMROUNDEDRECTD23*
21,1,0.04961,0.01949,0,0,180.0*
21,1,0.03012,0.03898,0,0,180.0*
1,1,0.01949,-0.01506,0.00974*
1,1,0.01949,0.01506,0.00974*
1,1,0.01949,0.01506,-0.00974*
1,1,0.01949,-0.01506,-0.00974*
%
%ADD23ROUNDEDRECTD23*%
%ADD24R,0.03543X0.04724*%
%ADD25R,0.04331X0.02756*%
%ADD26R,0.05339X0.03367*%
%ADD27R,0.03661X0.03543*%
%ADD28R,0.03071X0.04134*%
%ADD29R,0.13110X0.02756*%
%ADD30R,0.11024X0.03386*%
%ADD31R,0.07205X0.04488*%
G36*
X197250Y40117D02*
Y37717D01*
X192750D01*
Y40117D01*
X197250D01*
D02*
G37*
G36*
Y40886D02*
X192750D01*
Y43286D01*
X197250D01*
Y40886D01*
D02*
G37*
G36*
X192750Y59807D02*
Y62207D01*
X197250D01*
Y59807D01*
X192750D01*
D02*
G37*
G36*
Y62976D02*
Y65376D01*
X197250D01*
Y62976D01*
X192750D01*
D02*
G37*
D15*
X195000Y56469D02*
D03*
Y44655D02*
D03*
Y52531D02*
D03*
Y48593D02*
D03*
Y54500D02*
D03*
Y50562D02*
D03*
Y58438D02*
D03*
Y46624D02*
D03*
D16*
X96555Y39500D02*
D03*
X90445D02*
D03*
X96555Y51750D02*
D03*
X90445D02*
D03*
Y15000D02*
D03*
X96555D02*
D03*
Y64000D02*
D03*
X90445D02*
D03*
Y27250D02*
D03*
X96555D02*
D03*
D17*
X127500Y75575D02*
D03*
Y67500D02*
D03*
D18*
X119000Y72969D02*
D03*
Y69032D02*
D03*
D19*
X111000Y75937D02*
D03*
Y68063D02*
D03*
X154500Y25000D02*
D03*
Y17126D02*
D03*
X138105Y75636D02*
D03*
Y67762D02*
D03*
X158000D02*
D03*
Y75636D02*
D03*
D20*
X121004Y55760D02*
D03*
X123500D02*
D03*
X128500D02*
D03*
X131004D02*
D03*
X133500D02*
D03*
X138500D02*
D03*
X123500Y34500D02*
D03*
X126004D02*
D03*
X138500D02*
D03*
X136004D02*
D03*
X128500D02*
D03*
X133500D02*
D03*
X131004D02*
D03*
X121004D02*
D03*
X126004Y55760D02*
D03*
X136004D02*
D03*
D21*
X166500Y25142D02*
D03*
Y17858D02*
D03*
X148000Y75142D02*
D03*
Y67858D02*
D03*
D22*
X167500Y41193D02*
D03*
X159783D02*
D03*
Y33713D02*
D03*
D23*
X167500Y34500D02*
D03*
D24*
X159866Y48500D02*
D03*
X168134D02*
D03*
X159866Y55500D02*
D03*
X168134D02*
D03*
D25*
X63500Y30677D02*
D03*
Y52331D02*
D03*
Y48000D02*
D03*
Y43669D02*
D03*
Y39339D02*
D03*
Y35008D02*
D03*
Y26346D02*
D03*
Y22016D02*
D03*
D26*
X178000Y67000D02*
D03*
X178500Y17750D02*
D03*
Y24250D02*
D03*
X178000Y60500D02*
D03*
D27*
X14425Y59378D02*
D03*
D28*
X14130Y42587D02*
D03*
D29*
X19150Y17449D02*
D03*
Y68472D02*
D03*
D30*
X61532Y17764D02*
D03*
D31*
X63441Y67606D02*
D03*
M02*
