M48
;Layer_Color=9474304
;FILE_FORMAT=2:4
INCH,TZ
;TYPE=PLATED
T01F00S00C0.0118
;TYPE=NON_PLATED
T03F00S00C0.0260
%
T01
X54868Y12318
X54882Y12800
X55250Y13200
X57550
Y14000
X57529Y12097
X58600Y12150
X58550Y11482
X58300Y11050
X57550Y10750
Y10300
X59850Y11050
X60200Y11750
X60500Y11500
X60900Y12100
X61450Y12000
X61700Y14800
X61100Y15400
X58950Y14950
Y12700
X63450Y12200
X64700Y13000
X65900Y12250
X65250Y10350
X64000Y10300
X62800Y10350
X66100Y15500
X66050Y16100
X65150Y16450
X64000Y16800
X62150Y17250
X61150Y17450
X59250Y15750
X57550Y15650
X57500Y16850
T03
X67280Y13267
Y15542
M30
