G04*
G04 #@! TF.GenerationSoftware,Altium Limited,Altium Designer,26.3.0 (6)*
G04*
G04 Layer_Color=0*
%FSLAX25Y25*%
%MOIN*%
G70*
G04*
G04 #@! TF.SameCoordinates,9AFBF1FA-C3BB-45B3-99B6-A969387FD467*
G04*
G04*
G04 #@! TF.FilePolarity,Positive*
G04*
G01*
G75*
%ADD54C,0.00394*%
D54*
X91531Y39500D02*
X95468D01*
X93500Y37532D02*
Y41469D01*
X91531Y51750D02*
X95468D01*
X93500Y49782D02*
Y53719D01*
X91531Y15000D02*
X95468D01*
X93500Y13032D02*
Y16969D01*
X91531Y64000D02*
X95468D01*
X93500Y62032D02*
Y65969D01*
X91531Y27250D02*
X95468D01*
X93500Y25282D02*
Y29219D01*
X127500Y69569D02*
Y73506D01*
X125531Y71537D02*
X129469D01*
X119000Y69032D02*
Y72969D01*
X117032Y71000D02*
X120968D01*
X166500Y19532D02*
Y23469D01*
X164532Y21500D02*
X168468D01*
X162031Y48500D02*
X165969D01*
X164000Y46532D02*
Y50468D01*
X148000Y69532D02*
Y73469D01*
X146031Y71500D02*
X149969D01*
X164000Y53531D02*
Y57468D01*
X162031Y55500D02*
X165969D01*
X176532Y21000D02*
X180468D01*
X178500Y19031D02*
Y22968D01*
X176031Y63750D02*
X179969D01*
X178000Y61781D02*
Y65718D01*
M02*
