G04*
G04 #@! TF.GenerationSoftware,Altium Limited,Altium Designer,26.3.0 (6)*
G04*
G04 Layer_Color=16711935*
%FSLAX25Y25*%
%MOIN*%
G70*
G04*
G04 #@! TF.SameCoordinates,9AFBF1FA-C3BB-45B3-99B6-A969387FD467*
G04*
G04*
G04 #@! TF.FilePolarity,Positive*
G04*
G01*
G75*
%ADD11C,0.00787*%
G36*
X96852Y42070D02*
X96878D01*
X96907Y42066D01*
X96976Y42052D01*
X97053Y42033D01*
X97133Y42004D01*
X97213Y41961D01*
X97253Y41935D01*
X97289Y41906D01*
X97293Y41902D01*
X97297Y41899D01*
X97307Y41888D01*
X97318Y41877D01*
X97337Y41859D01*
X97351Y41837D01*
X97391Y41786D01*
X97431Y41720D01*
X97468Y41640D01*
X97500Y41549D01*
X97522Y41447D01*
X97213Y41422D01*
Y41425D01*
X97209Y41429D01*
X97206Y41451D01*
X97195Y41484D01*
X97180Y41524D01*
X97165Y41568D01*
X97144Y41611D01*
X97118Y41651D01*
X97093Y41684D01*
X97085Y41691D01*
X97071Y41706D01*
X97045Y41728D01*
X97009Y41753D01*
X96962Y41775D01*
X96911Y41797D01*
X96849Y41811D01*
X96783Y41819D01*
X96758D01*
X96729Y41815D01*
X96696Y41808D01*
X96652Y41797D01*
X96609Y41782D01*
X96565Y41764D01*
X96521Y41735D01*
X96514Y41731D01*
X96496Y41717D01*
X96470Y41691D01*
X96437Y41655D01*
X96401Y41611D01*
X96361Y41560D01*
X96325Y41495D01*
X96288Y41422D01*
Y41418D01*
X96285Y41411D01*
X96281Y41400D01*
X96274Y41385D01*
X96270Y41364D01*
X96263Y41338D01*
X96255Y41309D01*
X96248Y41273D01*
X96237Y41233D01*
X96230Y41189D01*
X96223Y41142D01*
X96219Y41091D01*
X96212Y41032D01*
X96208Y40974D01*
X96205Y40909D01*
Y40843D01*
X96208Y40847D01*
X96223Y40869D01*
X96248Y40898D01*
X96281Y40934D01*
X96317Y40978D01*
X96365Y41018D01*
X96416Y41058D01*
X96474Y41094D01*
X96478D01*
X96481Y41098D01*
X96503Y41109D01*
X96536Y41120D01*
X96579Y41138D01*
X96630Y41153D01*
X96689Y41163D01*
X96750Y41174D01*
X96816Y41178D01*
X96845D01*
X96867Y41174D01*
X96896Y41171D01*
X96925Y41167D01*
X96962Y41160D01*
X96998Y41149D01*
X97082Y41123D01*
X97125Y41105D01*
X97169Y41080D01*
X97213Y41054D01*
X97260Y41025D01*
X97304Y40989D01*
X97344Y40949D01*
X97347Y40945D01*
X97355Y40938D01*
X97366Y40927D01*
X97377Y40909D01*
X97395Y40883D01*
X97413Y40858D01*
X97431Y40825D01*
X97453Y40788D01*
X97475Y40749D01*
X97493Y40705D01*
X97511Y40654D01*
X97529Y40603D01*
X97540Y40548D01*
X97551Y40486D01*
X97559Y40424D01*
X97562Y40359D01*
Y40355D01*
Y40348D01*
Y40337D01*
Y40319D01*
X97559Y40297D01*
Y40275D01*
X97548Y40217D01*
X97537Y40148D01*
X97518Y40075D01*
X97493Y39995D01*
X97457Y39919D01*
Y39915D01*
X97453Y39911D01*
X97446Y39900D01*
X97438Y39886D01*
X97417Y39849D01*
X97384Y39802D01*
X97344Y39751D01*
X97297Y39700D01*
X97238Y39649D01*
X97176Y39606D01*
X97173D01*
X97169Y39602D01*
X97158Y39595D01*
X97144Y39591D01*
X97107Y39573D01*
X97060Y39555D01*
X96998Y39533D01*
X96929Y39518D01*
X96852Y39504D01*
X96769Y39500D01*
X96750D01*
X96732Y39504D01*
X96703D01*
X96670Y39507D01*
X96634Y39514D01*
X96590Y39525D01*
X96547Y39536D01*
X96496Y39551D01*
X96445Y39569D01*
X96394Y39591D01*
X96339Y39620D01*
X96288Y39653D01*
X96237Y39689D01*
X96186Y39733D01*
X96139Y39784D01*
X96135Y39788D01*
X96128Y39798D01*
X96117Y39813D01*
X96102Y39838D01*
X96081Y39871D01*
X96062Y39908D01*
X96041Y39955D01*
X96019Y40006D01*
X95993Y40068D01*
X95972Y40137D01*
X95953Y40213D01*
X95935Y40297D01*
X95917Y40392D01*
X95906Y40494D01*
X95899Y40603D01*
X95895Y40719D01*
Y40723D01*
Y40727D01*
Y40738D01*
Y40752D01*
X95899Y40788D01*
Y40839D01*
X95902Y40898D01*
X95910Y40967D01*
X95917Y41043D01*
X95928Y41127D01*
X95942Y41211D01*
X95961Y41302D01*
X95982Y41389D01*
X96008Y41477D01*
X96041Y41560D01*
X96077Y41640D01*
X96117Y41717D01*
X96164Y41782D01*
X96168Y41786D01*
X96175Y41793D01*
X96190Y41808D01*
X96208Y41830D01*
X96230Y41851D01*
X96259Y41873D01*
X96295Y41902D01*
X96332Y41928D01*
X96376Y41953D01*
X96423Y41982D01*
X96478Y42004D01*
X96532Y42030D01*
X96594Y42048D01*
X96659Y42063D01*
X96729Y42070D01*
X96801Y42073D01*
X96831D01*
X96852Y42070D01*
D02*
G37*
G36*
X94697Y42059D02*
X94730D01*
X94807Y42055D01*
X94887Y42044D01*
X94974Y42033D01*
X95054Y42015D01*
X95094Y42004D01*
X95127Y41993D01*
X95131D01*
X95134Y41990D01*
X95156Y41979D01*
X95189Y41964D01*
X95229Y41939D01*
X95273Y41906D01*
X95320Y41862D01*
X95364Y41811D01*
X95407Y41753D01*
Y41750D01*
X95411Y41746D01*
X95425Y41724D01*
X95440Y41688D01*
X95462Y41640D01*
X95480Y41586D01*
X95498Y41520D01*
X95509Y41451D01*
X95513Y41374D01*
Y41371D01*
Y41364D01*
Y41349D01*
X95509Y41331D01*
Y41305D01*
X95506Y41280D01*
X95491Y41218D01*
X95469Y41145D01*
X95440Y41069D01*
X95396Y40992D01*
X95367Y40956D01*
X95338Y40920D01*
X95335Y40916D01*
X95331Y40912D01*
X95320Y40901D01*
X95305Y40890D01*
X95287Y40876D01*
X95265Y40861D01*
X95236Y40843D01*
X95207Y40821D01*
X95171Y40803D01*
X95131Y40785D01*
X95087Y40763D01*
X95040Y40745D01*
X94985Y40730D01*
X94930Y40712D01*
X94869Y40701D01*
X94803Y40690D01*
X94810Y40687D01*
X94825Y40679D01*
X94847Y40665D01*
X94876Y40650D01*
X94941Y40610D01*
X94974Y40585D01*
X95003Y40563D01*
X95011Y40556D01*
X95029Y40537D01*
X95058Y40508D01*
X95094Y40472D01*
X95134Y40421D01*
X95182Y40366D01*
X95229Y40301D01*
X95280Y40228D01*
X95713Y39544D01*
X95298D01*
X94967Y40068D01*
Y40071D01*
X94960Y40079D01*
X94952Y40090D01*
X94941Y40104D01*
X94916Y40144D01*
X94883Y40195D01*
X94843Y40250D01*
X94803Y40308D01*
X94763Y40363D01*
X94727Y40414D01*
X94723Y40417D01*
X94712Y40432D01*
X94694Y40454D01*
X94668Y40479D01*
X94614Y40534D01*
X94585Y40559D01*
X94556Y40581D01*
X94552Y40585D01*
X94545Y40588D01*
X94530Y40596D01*
X94508Y40606D01*
X94486Y40617D01*
X94461Y40628D01*
X94403Y40647D01*
X94399D01*
X94392Y40650D01*
X94377D01*
X94359Y40654D01*
X94333Y40657D01*
X94304D01*
X94264Y40661D01*
X93835D01*
Y39544D01*
X93500D01*
Y42063D01*
X94668D01*
X94697Y42059D01*
D02*
G37*
G36*
X97562Y53992D02*
X97559Y53988D01*
X97551Y53981D01*
X97537Y53967D01*
X97522Y53945D01*
X97500Y53919D01*
X97471Y53890D01*
X97442Y53854D01*
X97409Y53810D01*
X97377Y53767D01*
X97337Y53715D01*
X97297Y53657D01*
X97256Y53599D01*
X97213Y53534D01*
X97169Y53464D01*
X97125Y53388D01*
X97082Y53312D01*
X97078Y53308D01*
X97071Y53293D01*
X97060Y53272D01*
X97042Y53239D01*
X97023Y53199D01*
X97002Y53155D01*
X96976Y53104D01*
X96951Y53046D01*
X96922Y52980D01*
X96889Y52915D01*
X96860Y52842D01*
X96831Y52766D01*
X96772Y52609D01*
X96718Y52442D01*
Y52438D01*
X96714Y52427D01*
X96710Y52409D01*
X96703Y52387D01*
X96696Y52358D01*
X96689Y52321D01*
X96678Y52281D01*
X96670Y52238D01*
X96659Y52187D01*
X96649Y52132D01*
X96630Y52016D01*
X96612Y51888D01*
X96601Y51750D01*
X96285D01*
Y51754D01*
Y51765D01*
Y51779D01*
X96288Y51801D01*
Y51830D01*
X96292Y51866D01*
X96295Y51907D01*
X96299Y51950D01*
X96306Y52001D01*
X96314Y52052D01*
X96325Y52114D01*
X96336Y52176D01*
X96346Y52241D01*
X96361Y52314D01*
X96397Y52463D01*
Y52467D01*
X96401Y52482D01*
X96408Y52503D01*
X96419Y52536D01*
X96430Y52573D01*
X96445Y52616D01*
X96459Y52667D01*
X96481Y52722D01*
X96503Y52784D01*
X96525Y52846D01*
X96579Y52984D01*
X96645Y53130D01*
X96718Y53275D01*
X96721Y53279D01*
X96729Y53293D01*
X96740Y53312D01*
X96754Y53341D01*
X96772Y53373D01*
X96798Y53413D01*
X96823Y53457D01*
X96852Y53504D01*
X96922Y53610D01*
X96994Y53719D01*
X97078Y53832D01*
X97165Y53938D01*
X95932D01*
Y54236D01*
X97562D01*
Y53992D01*
D02*
G37*
G36*
X94697Y54265D02*
X94730D01*
X94807Y54261D01*
X94887Y54251D01*
X94974Y54240D01*
X95054Y54221D01*
X95094Y54211D01*
X95127Y54200D01*
X95131D01*
X95134Y54196D01*
X95156Y54185D01*
X95189Y54171D01*
X95229Y54145D01*
X95273Y54112D01*
X95320Y54069D01*
X95364Y54018D01*
X95407Y53959D01*
Y53956D01*
X95411Y53952D01*
X95425Y53930D01*
X95440Y53894D01*
X95462Y53847D01*
X95480Y53792D01*
X95498Y53727D01*
X95509Y53657D01*
X95513Y53581D01*
Y53577D01*
Y53570D01*
Y53555D01*
X95509Y53537D01*
Y53512D01*
X95506Y53486D01*
X95491Y53424D01*
X95469Y53351D01*
X95440Y53275D01*
X95396Y53199D01*
X95367Y53162D01*
X95338Y53126D01*
X95335Y53122D01*
X95331Y53119D01*
X95320Y53108D01*
X95305Y53097D01*
X95287Y53082D01*
X95265Y53068D01*
X95236Y53049D01*
X95207Y53028D01*
X95171Y53009D01*
X95131Y52991D01*
X95087Y52969D01*
X95040Y52951D01*
X94985Y52937D01*
X94930Y52918D01*
X94869Y52908D01*
X94803Y52897D01*
X94810Y52893D01*
X94825Y52886D01*
X94847Y52871D01*
X94876Y52856D01*
X94941Y52816D01*
X94974Y52791D01*
X95003Y52769D01*
X95011Y52762D01*
X95029Y52744D01*
X95058Y52715D01*
X95094Y52678D01*
X95134Y52627D01*
X95182Y52573D01*
X95229Y52507D01*
X95280Y52434D01*
X95713Y51750D01*
X95298D01*
X94967Y52274D01*
Y52278D01*
X94960Y52285D01*
X94952Y52296D01*
X94941Y52311D01*
X94916Y52350D01*
X94883Y52402D01*
X94843Y52456D01*
X94803Y52514D01*
X94763Y52569D01*
X94727Y52620D01*
X94723Y52624D01*
X94712Y52638D01*
X94694Y52660D01*
X94668Y52685D01*
X94614Y52740D01*
X94585Y52766D01*
X94556Y52787D01*
X94552Y52791D01*
X94545Y52795D01*
X94530Y52802D01*
X94508Y52813D01*
X94486Y52824D01*
X94461Y52835D01*
X94403Y52853D01*
X94399D01*
X94392Y52856D01*
X94377D01*
X94359Y52860D01*
X94333Y52864D01*
X94304D01*
X94264Y52867D01*
X93835D01*
Y51750D01*
X93500D01*
Y54269D01*
X94668D01*
X94697Y54265D01*
D02*
G37*
G36*
X96743Y17570D02*
X96761D01*
X96787Y17566D01*
X96849Y17555D01*
X96918Y17541D01*
X96994Y17515D01*
X97071Y17482D01*
X97147Y17439D01*
X97151D01*
X97154Y17432D01*
X97165Y17424D01*
X97180Y17413D01*
X97216Y17384D01*
X97264Y17344D01*
X97311Y17289D01*
X97366Y17224D01*
X97413Y17148D01*
X97457Y17060D01*
Y17056D01*
X97460Y17049D01*
X97468Y17035D01*
X97475Y17017D01*
X97482Y16991D01*
X97493Y16958D01*
X97500Y16922D01*
X97511Y16882D01*
X97522Y16835D01*
X97533Y16780D01*
X97540Y16722D01*
X97548Y16660D01*
X97555Y16591D01*
X97562Y16518D01*
X97566Y16438D01*
Y16354D01*
Y16350D01*
Y16332D01*
Y16307D01*
Y16274D01*
X97562Y16234D01*
Y16187D01*
X97559Y16132D01*
X97551Y16077D01*
X97540Y15954D01*
X97522Y15823D01*
X97497Y15699D01*
X97478Y15637D01*
X97460Y15582D01*
Y15579D01*
X97457Y15571D01*
X97449Y15557D01*
X97442Y15535D01*
X97431Y15513D01*
X97417Y15484D01*
X97380Y15422D01*
X97337Y15353D01*
X97286Y15280D01*
X97220Y15211D01*
X97147Y15149D01*
X97144D01*
X97136Y15142D01*
X97125Y15135D01*
X97111Y15127D01*
X97089Y15116D01*
X97067Y15102D01*
X97038Y15087D01*
X97009Y15076D01*
X96940Y15047D01*
X96856Y15022D01*
X96765Y15007D01*
X96663Y15000D01*
X96634D01*
X96616Y15004D01*
X96590D01*
X96561Y15007D01*
X96492Y15022D01*
X96416Y15040D01*
X96336Y15069D01*
X96255Y15109D01*
X96215Y15135D01*
X96179Y15164D01*
X96175Y15167D01*
X96172Y15171D01*
X96161Y15182D01*
X96150Y15193D01*
X96135Y15211D01*
X96117Y15233D01*
X96081Y15284D01*
X96044Y15349D01*
X96008Y15429D01*
X95979Y15520D01*
X95957Y15626D01*
X96255Y15652D01*
Y15648D01*
X96259Y15641D01*
Y15633D01*
X96263Y15619D01*
X96274Y15579D01*
X96288Y15535D01*
X96306Y15484D01*
X96332Y15433D01*
X96361Y15386D01*
X96397Y15346D01*
X96401Y15342D01*
X96416Y15331D01*
X96441Y15317D01*
X96470Y15302D01*
X96510Y15284D01*
X96558Y15269D01*
X96612Y15258D01*
X96670Y15255D01*
X96696D01*
X96721Y15258D01*
X96754Y15262D01*
X96794Y15269D01*
X96834Y15280D01*
X96878Y15295D01*
X96918Y15317D01*
X96922Y15320D01*
X96936Y15327D01*
X96958Y15342D01*
X96980Y15364D01*
X97009Y15389D01*
X97038Y15418D01*
X97067Y15451D01*
X97096Y15491D01*
X97100Y15495D01*
X97107Y15513D01*
X97122Y15539D01*
X97136Y15571D01*
X97154Y15615D01*
X97173Y15666D01*
X97191Y15724D01*
X97209Y15790D01*
Y15793D01*
X97213Y15797D01*
Y15808D01*
X97216Y15823D01*
X97224Y15859D01*
X97235Y15906D01*
X97242Y15965D01*
X97249Y16026D01*
X97253Y16096D01*
X97256Y16168D01*
Y16172D01*
Y16183D01*
Y16201D01*
Y16230D01*
X97253Y16223D01*
X97238Y16205D01*
X97216Y16179D01*
X97191Y16143D01*
X97154Y16106D01*
X97111Y16067D01*
X97060Y16026D01*
X97002Y15990D01*
X96994Y15986D01*
X96973Y15976D01*
X96940Y15961D01*
X96900Y15946D01*
X96845Y15928D01*
X96787Y15914D01*
X96721Y15903D01*
X96652Y15899D01*
X96623D01*
X96601Y15903D01*
X96572Y15906D01*
X96543Y15910D01*
X96507Y15917D01*
X96470Y15928D01*
X96386Y15954D01*
X96343Y15972D01*
X96299Y15994D01*
X96252Y16019D01*
X96208Y16052D01*
X96164Y16085D01*
X96124Y16125D01*
X96121Y16128D01*
X96114Y16136D01*
X96106Y16147D01*
X96092Y16165D01*
X96073Y16190D01*
X96055Y16216D01*
X96037Y16249D01*
X96019Y16285D01*
X95997Y16325D01*
X95979Y16369D01*
X95961Y16420D01*
X95942Y16470D01*
X95928Y16529D01*
X95921Y16591D01*
X95913Y16653D01*
X95910Y16722D01*
Y16725D01*
Y16740D01*
Y16758D01*
X95913Y16783D01*
X95917Y16816D01*
X95921Y16856D01*
X95928Y16896D01*
X95939Y16944D01*
X95964Y17038D01*
X95982Y17089D01*
X96004Y17144D01*
X96030Y17195D01*
X96062Y17242D01*
X96095Y17293D01*
X96135Y17337D01*
X96139Y17341D01*
X96146Y17348D01*
X96157Y17359D01*
X96175Y17373D01*
X96197Y17391D01*
X96226Y17413D01*
X96255Y17432D01*
X96292Y17457D01*
X96328Y17479D01*
X96372Y17497D01*
X96470Y17537D01*
X96521Y17552D01*
X96579Y17562D01*
X96638Y17570D01*
X96700Y17573D01*
X96725D01*
X96743Y17570D01*
D02*
G37*
G36*
X94697Y17559D02*
X94730D01*
X94807Y17555D01*
X94887Y17544D01*
X94974Y17533D01*
X95054Y17515D01*
X95094Y17504D01*
X95127Y17493D01*
X95131D01*
X95134Y17490D01*
X95156Y17479D01*
X95189Y17464D01*
X95229Y17439D01*
X95273Y17406D01*
X95320Y17362D01*
X95364Y17311D01*
X95407Y17253D01*
Y17249D01*
X95411Y17246D01*
X95425Y17224D01*
X95440Y17188D01*
X95462Y17140D01*
X95480Y17086D01*
X95498Y17020D01*
X95509Y16951D01*
X95513Y16874D01*
Y16871D01*
Y16864D01*
Y16849D01*
X95509Y16831D01*
Y16805D01*
X95506Y16780D01*
X95491Y16718D01*
X95469Y16645D01*
X95440Y16569D01*
X95396Y16492D01*
X95367Y16456D01*
X95338Y16420D01*
X95335Y16416D01*
X95331Y16412D01*
X95320Y16401D01*
X95305Y16390D01*
X95287Y16376D01*
X95265Y16361D01*
X95236Y16343D01*
X95207Y16321D01*
X95171Y16303D01*
X95131Y16285D01*
X95087Y16263D01*
X95040Y16245D01*
X94985Y16230D01*
X94930Y16212D01*
X94869Y16201D01*
X94803Y16190D01*
X94810Y16187D01*
X94825Y16179D01*
X94847Y16165D01*
X94876Y16150D01*
X94941Y16110D01*
X94974Y16085D01*
X95003Y16063D01*
X95011Y16056D01*
X95029Y16037D01*
X95058Y16008D01*
X95094Y15972D01*
X95134Y15921D01*
X95182Y15866D01*
X95229Y15801D01*
X95280Y15728D01*
X95713Y15044D01*
X95298D01*
X94967Y15568D01*
Y15571D01*
X94960Y15579D01*
X94952Y15590D01*
X94941Y15604D01*
X94916Y15644D01*
X94883Y15695D01*
X94843Y15750D01*
X94803Y15808D01*
X94763Y15863D01*
X94727Y15914D01*
X94723Y15917D01*
X94712Y15932D01*
X94694Y15954D01*
X94668Y15979D01*
X94614Y16034D01*
X94585Y16059D01*
X94556Y16081D01*
X94552Y16085D01*
X94545Y16088D01*
X94530Y16096D01*
X94508Y16106D01*
X94486Y16117D01*
X94461Y16128D01*
X94403Y16147D01*
X94399D01*
X94392Y16150D01*
X94377D01*
X94359Y16154D01*
X94333Y16158D01*
X94304D01*
X94264Y16161D01*
X93835D01*
Y15044D01*
X93500D01*
Y17562D01*
X94668D01*
X94697Y17559D01*
D02*
G37*
G36*
Y66559D02*
X94730D01*
X94807Y66555D01*
X94887Y66544D01*
X94974Y66533D01*
X95054Y66515D01*
X95094Y66504D01*
X95127Y66493D01*
X95131D01*
X95134Y66490D01*
X95156Y66479D01*
X95189Y66464D01*
X95229Y66439D01*
X95273Y66406D01*
X95320Y66362D01*
X95364Y66311D01*
X95407Y66253D01*
Y66250D01*
X95411Y66246D01*
X95425Y66224D01*
X95440Y66188D01*
X95462Y66140D01*
X95480Y66086D01*
X95498Y66020D01*
X95509Y65951D01*
X95513Y65874D01*
Y65871D01*
Y65864D01*
Y65849D01*
X95509Y65831D01*
Y65805D01*
X95506Y65780D01*
X95491Y65718D01*
X95469Y65645D01*
X95440Y65569D01*
X95396Y65492D01*
X95367Y65456D01*
X95338Y65420D01*
X95335Y65416D01*
X95331Y65412D01*
X95320Y65401D01*
X95305Y65390D01*
X95287Y65376D01*
X95265Y65361D01*
X95236Y65343D01*
X95207Y65321D01*
X95171Y65303D01*
X95131Y65285D01*
X95087Y65263D01*
X95040Y65245D01*
X94985Y65230D01*
X94930Y65212D01*
X94869Y65201D01*
X94803Y65190D01*
X94810Y65187D01*
X94825Y65179D01*
X94847Y65165D01*
X94876Y65150D01*
X94941Y65110D01*
X94974Y65085D01*
X95003Y65063D01*
X95011Y65056D01*
X95029Y65037D01*
X95058Y65008D01*
X95094Y64972D01*
X95134Y64921D01*
X95182Y64866D01*
X95229Y64801D01*
X95280Y64728D01*
X95713Y64044D01*
X95298D01*
X94967Y64568D01*
Y64571D01*
X94960Y64579D01*
X94952Y64590D01*
X94941Y64604D01*
X94916Y64644D01*
X94883Y64695D01*
X94843Y64750D01*
X94803Y64808D01*
X94763Y64863D01*
X94727Y64914D01*
X94723Y64917D01*
X94712Y64932D01*
X94694Y64954D01*
X94668Y64979D01*
X94614Y65034D01*
X94585Y65059D01*
X94556Y65081D01*
X94552Y65085D01*
X94545Y65088D01*
X94530Y65096D01*
X94508Y65106D01*
X94486Y65117D01*
X94461Y65128D01*
X94403Y65147D01*
X94399D01*
X94392Y65150D01*
X94377D01*
X94359Y65154D01*
X94333Y65158D01*
X94304D01*
X94264Y65161D01*
X93835D01*
Y64044D01*
X93500D01*
Y66562D01*
X94668D01*
X94697Y66559D01*
D02*
G37*
G36*
X96783Y66570D02*
X96812Y66566D01*
X96845Y66562D01*
X96882Y66559D01*
X96918Y66548D01*
X97005Y66526D01*
X97093Y66493D01*
X97136Y66471D01*
X97180Y66446D01*
X97220Y66413D01*
X97260Y66381D01*
X97264Y66377D01*
X97267Y66373D01*
X97278Y66362D01*
X97293Y66348D01*
X97307Y66326D01*
X97326Y66304D01*
X97362Y66250D01*
X97398Y66180D01*
X97431Y66100D01*
X97457Y66009D01*
X97460Y65962D01*
X97464Y65911D01*
Y65907D01*
Y65904D01*
Y65882D01*
X97460Y65849D01*
X97453Y65809D01*
X97442Y65758D01*
X97424Y65707D01*
X97402Y65656D01*
X97369Y65605D01*
X97366Y65598D01*
X97351Y65583D01*
X97329Y65561D01*
X97300Y65532D01*
X97260Y65500D01*
X97213Y65467D01*
X97158Y65434D01*
X97093Y65405D01*
X97096D01*
X97104Y65401D01*
X97114Y65398D01*
X97129Y65390D01*
X97173Y65372D01*
X97224Y65347D01*
X97278Y65310D01*
X97337Y65270D01*
X97391Y65219D01*
X97442Y65161D01*
Y65158D01*
X97446Y65154D01*
X97460Y65132D01*
X97482Y65096D01*
X97504Y65048D01*
X97526Y64990D01*
X97548Y64921D01*
X97562Y64844D01*
X97566Y64761D01*
Y64757D01*
Y64746D01*
Y64728D01*
X97562Y64706D01*
X97559Y64681D01*
X97555Y64648D01*
X97548Y64612D01*
X97537Y64571D01*
X97511Y64488D01*
X97493Y64440D01*
X97468Y64397D01*
X97442Y64349D01*
X97413Y64306D01*
X97377Y64262D01*
X97337Y64218D01*
X97333Y64215D01*
X97326Y64207D01*
X97315Y64196D01*
X97297Y64186D01*
X97271Y64167D01*
X97246Y64149D01*
X97213Y64131D01*
X97176Y64109D01*
X97136Y64087D01*
X97089Y64069D01*
X97038Y64051D01*
X96987Y64033D01*
X96929Y64022D01*
X96867Y64011D01*
X96805Y64004D01*
X96736Y64000D01*
X96700D01*
X96674Y64004D01*
X96641Y64007D01*
X96605Y64011D01*
X96565Y64018D01*
X96521Y64029D01*
X96423Y64055D01*
X96372Y64073D01*
X96325Y64091D01*
X96274Y64116D01*
X96223Y64146D01*
X96175Y64178D01*
X96132Y64218D01*
X96128Y64222D01*
X96121Y64229D01*
X96110Y64240D01*
X96095Y64258D01*
X96081Y64280D01*
X96059Y64306D01*
X96041Y64335D01*
X96019Y64371D01*
X95997Y64408D01*
X95979Y64451D01*
X95942Y64542D01*
X95928Y64597D01*
X95917Y64652D01*
X95910Y64710D01*
X95906Y64768D01*
Y64772D01*
Y64779D01*
Y64793D01*
X95910Y64808D01*
Y64830D01*
X95913Y64855D01*
X95921Y64914D01*
X95935Y64979D01*
X95957Y65045D01*
X95990Y65114D01*
X96030Y65179D01*
Y65183D01*
X96037Y65187D01*
X96052Y65205D01*
X96081Y65234D01*
X96121Y65270D01*
X96172Y65307D01*
X96234Y65347D01*
X96303Y65380D01*
X96386Y65405D01*
X96383D01*
X96379Y65409D01*
X96368Y65412D01*
X96354Y65420D01*
X96321Y65434D01*
X96277Y65456D01*
X96230Y65485D01*
X96183Y65522D01*
X96139Y65561D01*
X96099Y65605D01*
X96095Y65613D01*
X96084Y65627D01*
X96070Y65656D01*
X96055Y65693D01*
X96037Y65740D01*
X96022Y65794D01*
X96012Y65856D01*
X96008Y65922D01*
Y65926D01*
Y65933D01*
Y65947D01*
X96012Y65969D01*
X96015Y65991D01*
X96019Y66020D01*
X96033Y66082D01*
X96055Y66155D01*
X96092Y66231D01*
X96114Y66271D01*
X96139Y66311D01*
X96172Y66348D01*
X96205Y66384D01*
X96208Y66388D01*
X96215Y66391D01*
X96226Y66402D01*
X96241Y66413D01*
X96259Y66428D01*
X96285Y66442D01*
X96314Y66461D01*
X96343Y66479D01*
X96379Y66497D01*
X96419Y66515D01*
X96463Y66530D01*
X96510Y66544D01*
X96612Y66566D01*
X96670Y66570D01*
X96729Y66573D01*
X96761D01*
X96783Y66570D01*
D02*
G37*
G36*
X97460Y29485D02*
X96452D01*
X96317Y28804D01*
X96321Y28808D01*
X96328Y28811D01*
X96339Y28819D01*
X96357Y28830D01*
X96379Y28841D01*
X96405Y28855D01*
X96463Y28884D01*
X96536Y28913D01*
X96616Y28939D01*
X96703Y28957D01*
X96747Y28964D01*
X96827D01*
X96849Y28961D01*
X96878Y28957D01*
X96911Y28953D01*
X96947Y28946D01*
X96987Y28935D01*
X97074Y28910D01*
X97122Y28892D01*
X97169Y28866D01*
X97216Y28841D01*
X97264Y28811D01*
X97307Y28775D01*
X97351Y28735D01*
X97355Y28731D01*
X97362Y28724D01*
X97373Y28713D01*
X97387Y28695D01*
X97406Y28670D01*
X97424Y28644D01*
X97446Y28611D01*
X97468Y28575D01*
X97486Y28535D01*
X97508Y28491D01*
X97526Y28440D01*
X97544Y28389D01*
X97559Y28335D01*
X97570Y28273D01*
X97577Y28211D01*
X97580Y28145D01*
Y28142D01*
Y28131D01*
Y28113D01*
X97577Y28087D01*
X97573Y28058D01*
X97570Y28025D01*
X97562Y27985D01*
X97555Y27945D01*
X97533Y27850D01*
X97497Y27752D01*
X97475Y27701D01*
X97446Y27654D01*
X97417Y27603D01*
X97380Y27556D01*
X97377Y27552D01*
X97369Y27541D01*
X97355Y27527D01*
X97337Y27508D01*
X97311Y27487D01*
X97282Y27457D01*
X97246Y27432D01*
X97206Y27403D01*
X97162Y27374D01*
X97111Y27348D01*
X97056Y27323D01*
X96998Y27297D01*
X96936Y27279D01*
X96867Y27264D01*
X96794Y27254D01*
X96718Y27250D01*
X96685D01*
X96659Y27254D01*
X96630Y27257D01*
X96598Y27261D01*
X96558Y27264D01*
X96517Y27275D01*
X96426Y27297D01*
X96336Y27330D01*
X96288Y27352D01*
X96241Y27377D01*
X96197Y27406D01*
X96153Y27439D01*
X96150Y27443D01*
X96143Y27446D01*
X96135Y27461D01*
X96121Y27476D01*
X96102Y27494D01*
X96084Y27516D01*
X96062Y27545D01*
X96044Y27578D01*
X96022Y27610D01*
X96001Y27650D01*
X95961Y27738D01*
X95928Y27840D01*
X95917Y27894D01*
X95910Y27953D01*
X96234Y27978D01*
Y27974D01*
Y27967D01*
X96237Y27956D01*
X96241Y27938D01*
X96252Y27898D01*
X96266Y27843D01*
X96288Y27789D01*
X96317Y27727D01*
X96354Y27672D01*
X96397Y27621D01*
X96405Y27618D01*
X96419Y27603D01*
X96448Y27585D01*
X96488Y27563D01*
X96532Y27541D01*
X96587Y27523D01*
X96649Y27508D01*
X96718Y27505D01*
X96740D01*
X96754Y27508D01*
X96798Y27512D01*
X96849Y27527D01*
X96911Y27545D01*
X96973Y27574D01*
X97038Y27618D01*
X97067Y27643D01*
X97096Y27672D01*
X97100Y27676D01*
X97104Y27679D01*
X97111Y27690D01*
X97122Y27701D01*
X97147Y27741D01*
X97176Y27792D01*
X97202Y27854D01*
X97227Y27931D01*
X97246Y28022D01*
X97253Y28069D01*
Y28120D01*
Y28124D01*
Y28131D01*
Y28145D01*
X97249Y28164D01*
Y28185D01*
X97246Y28211D01*
X97235Y28269D01*
X97216Y28338D01*
X97191Y28407D01*
X97154Y28473D01*
X97104Y28535D01*
Y28539D01*
X97096Y28542D01*
X97078Y28560D01*
X97045Y28586D01*
X97002Y28615D01*
X96943Y28640D01*
X96878Y28666D01*
X96801Y28684D01*
X96758Y28691D01*
X96689D01*
X96659Y28688D01*
X96623Y28684D01*
X96579Y28673D01*
X96536Y28662D01*
X96488Y28644D01*
X96441Y28622D01*
X96437Y28619D01*
X96423Y28611D01*
X96401Y28593D01*
X96372Y28575D01*
X96343Y28549D01*
X96314Y28517D01*
X96281Y28484D01*
X96255Y28444D01*
X95964Y28484D01*
X96208Y29780D01*
X97460D01*
Y29485D01*
D02*
G37*
G36*
X94697Y29809D02*
X94730D01*
X94807Y29805D01*
X94887Y29794D01*
X94974Y29783D01*
X95054Y29765D01*
X95094Y29754D01*
X95127Y29743D01*
X95131D01*
X95134Y29740D01*
X95156Y29729D01*
X95189Y29714D01*
X95229Y29689D01*
X95273Y29656D01*
X95320Y29612D01*
X95364Y29561D01*
X95407Y29503D01*
Y29500D01*
X95411Y29496D01*
X95425Y29474D01*
X95440Y29438D01*
X95462Y29390D01*
X95480Y29336D01*
X95498Y29270D01*
X95509Y29201D01*
X95513Y29125D01*
Y29121D01*
Y29114D01*
Y29099D01*
X95509Y29081D01*
Y29055D01*
X95506Y29030D01*
X95491Y28968D01*
X95469Y28895D01*
X95440Y28819D01*
X95396Y28742D01*
X95367Y28706D01*
X95338Y28670D01*
X95335Y28666D01*
X95331Y28662D01*
X95320Y28651D01*
X95305Y28640D01*
X95287Y28626D01*
X95265Y28611D01*
X95236Y28593D01*
X95207Y28571D01*
X95171Y28553D01*
X95131Y28535D01*
X95087Y28513D01*
X95040Y28495D01*
X94985Y28480D01*
X94930Y28462D01*
X94869Y28451D01*
X94803Y28440D01*
X94810Y28437D01*
X94825Y28429D01*
X94847Y28415D01*
X94876Y28400D01*
X94941Y28360D01*
X94974Y28335D01*
X95003Y28313D01*
X95011Y28306D01*
X95029Y28287D01*
X95058Y28258D01*
X95094Y28222D01*
X95134Y28171D01*
X95182Y28116D01*
X95229Y28051D01*
X95280Y27978D01*
X95713Y27294D01*
X95298D01*
X94967Y27818D01*
Y27821D01*
X94960Y27829D01*
X94952Y27840D01*
X94941Y27854D01*
X94916Y27894D01*
X94883Y27945D01*
X94843Y28000D01*
X94803Y28058D01*
X94763Y28113D01*
X94727Y28164D01*
X94723Y28167D01*
X94712Y28182D01*
X94694Y28204D01*
X94668Y28229D01*
X94614Y28284D01*
X94585Y28309D01*
X94556Y28331D01*
X94552Y28335D01*
X94545Y28338D01*
X94530Y28346D01*
X94508Y28357D01*
X94486Y28367D01*
X94461Y28378D01*
X94403Y28397D01*
X94399D01*
X94392Y28400D01*
X94377D01*
X94359Y28404D01*
X94333Y28407D01*
X94304D01*
X94264Y28411D01*
X93835D01*
Y27294D01*
X93500D01*
Y29812D01*
X94668D01*
X94697Y29809D01*
D02*
G37*
G36*
X130062Y70369D02*
X130059Y70340D01*
Y70307D01*
X130055Y70231D01*
X130044Y70151D01*
X130033Y70063D01*
X130015Y69983D01*
X130004Y69943D01*
X129993Y69910D01*
Y69907D01*
X129990Y69903D01*
X129979Y69881D01*
X129964Y69848D01*
X129939Y69808D01*
X129906Y69765D01*
X129862Y69717D01*
X129811Y69674D01*
X129753Y69630D01*
X129750D01*
X129746Y69626D01*
X129724Y69612D01*
X129688Y69597D01*
X129640Y69575D01*
X129586Y69557D01*
X129520Y69539D01*
X129451Y69528D01*
X129375Y69525D01*
X129371D01*
X129364D01*
X129349D01*
X129331Y69528D01*
X129305D01*
X129280Y69532D01*
X129218Y69546D01*
X129145Y69568D01*
X129069Y69597D01*
X128992Y69641D01*
X128956Y69670D01*
X128920Y69699D01*
X128916Y69703D01*
X128912Y69706D01*
X128901Y69717D01*
X128890Y69732D01*
X128876Y69750D01*
X128861Y69772D01*
X128843Y69801D01*
X128821Y69830D01*
X128803Y69867D01*
X128785Y69907D01*
X128763Y69950D01*
X128745Y69998D01*
X128730Y70052D01*
X128712Y70107D01*
X128701Y70169D01*
X128690Y70234D01*
X128687Y70227D01*
X128679Y70212D01*
X128665Y70191D01*
X128650Y70161D01*
X128610Y70096D01*
X128585Y70063D01*
X128563Y70034D01*
X128556Y70027D01*
X128537Y70009D01*
X128508Y69979D01*
X128472Y69943D01*
X128421Y69903D01*
X128366Y69856D01*
X128301Y69808D01*
X128228Y69757D01*
X127544Y69324D01*
Y69739D01*
X128068Y70070D01*
X128071D01*
X128079Y70078D01*
X128090Y70085D01*
X128104Y70096D01*
X128144Y70121D01*
X128195Y70154D01*
X128250Y70194D01*
X128308Y70234D01*
X128363Y70274D01*
X128414Y70311D01*
X128417Y70314D01*
X128432Y70325D01*
X128454Y70343D01*
X128479Y70369D01*
X128534Y70424D01*
X128559Y70453D01*
X128581Y70482D01*
X128585Y70485D01*
X128588Y70493D01*
X128596Y70507D01*
X128606Y70529D01*
X128617Y70551D01*
X128628Y70576D01*
X128647Y70635D01*
Y70638D01*
X128650Y70646D01*
Y70660D01*
X128654Y70678D01*
X128657Y70704D01*
Y70733D01*
X128661Y70773D01*
Y71202D01*
X127544D01*
Y71537D01*
X130062D01*
Y70369D01*
D02*
G37*
G36*
X129440Y68888D02*
X129447Y68880D01*
X129451Y68866D01*
X129462Y68847D01*
X129473Y68826D01*
X129487Y68800D01*
X129524Y68738D01*
X129564Y68665D01*
X129615Y68593D01*
X129673Y68516D01*
X129735Y68440D01*
X129739Y68436D01*
X129742Y68432D01*
X129753Y68422D01*
X129764Y68407D01*
X129800Y68374D01*
X129844Y68331D01*
X129895Y68287D01*
X129953Y68239D01*
X130012Y68199D01*
X130073Y68163D01*
Y67963D01*
X127544D01*
Y68272D01*
X129513D01*
X129509Y68276D01*
X129495Y68294D01*
X129473Y68316D01*
X129447Y68352D01*
X129415Y68392D01*
X129378Y68443D01*
X129338Y68502D01*
X129298Y68567D01*
Y68571D01*
X129295Y68574D01*
X129280Y68596D01*
X129262Y68633D01*
X129240Y68676D01*
X129214Y68727D01*
X129189Y68782D01*
X129163Y68836D01*
X129142Y68891D01*
X129440D01*
Y68888D01*
D02*
G37*
G36*
X128898Y67166D02*
X128941D01*
X128989Y67162D01*
X129043Y67159D01*
X129156Y67147D01*
X129276Y67129D01*
X129396Y67107D01*
X129451Y67093D01*
X129506Y67078D01*
X129509D01*
X129516Y67075D01*
X129531Y67067D01*
X129549Y67060D01*
X129575Y67053D01*
X129600Y67038D01*
X129662Y67009D01*
X129728Y66973D01*
X129797Y66926D01*
X129866Y66871D01*
X129924Y66805D01*
Y66802D01*
X129931Y66798D01*
X129939Y66787D01*
X129946Y66773D01*
X129961Y66754D01*
X129972Y66733D01*
X130001Y66678D01*
X130026Y66612D01*
X130052Y66536D01*
X130066Y66445D01*
X130073Y66347D01*
Y66314D01*
X130070Y66274D01*
X130062Y66227D01*
X130052Y66172D01*
X130037Y66114D01*
X130019Y66052D01*
X129990Y65994D01*
Y65990D01*
X129986Y65986D01*
X129975Y65968D01*
X129957Y65939D01*
X129931Y65903D01*
X129895Y65863D01*
X129855Y65819D01*
X129808Y65779D01*
X129753Y65739D01*
X129746Y65735D01*
X129728Y65721D01*
X129695Y65706D01*
X129648Y65681D01*
X129593Y65659D01*
X129531Y65630D01*
X129458Y65604D01*
X129378Y65582D01*
X129375D01*
X129367Y65579D01*
X129356Y65575D01*
X129338Y65571D01*
X129316Y65568D01*
X129291Y65564D01*
X129258Y65557D01*
X129222Y65553D01*
X129182Y65546D01*
X129138Y65542D01*
X129087Y65539D01*
X129036Y65531D01*
X128978Y65528D01*
X128920D01*
X128854Y65524D01*
X128785D01*
X128781D01*
X128767D01*
X128741D01*
X128712D01*
X128672Y65528D01*
X128628D01*
X128581Y65531D01*
X128530Y65535D01*
X128414Y65546D01*
X128294Y65564D01*
X128177Y65586D01*
X128122Y65601D01*
X128068Y65619D01*
X128064D01*
X128057Y65622D01*
X128042Y65630D01*
X128024Y65637D01*
X127999Y65644D01*
X127973Y65659D01*
X127911Y65688D01*
X127846Y65724D01*
X127773Y65772D01*
X127707Y65826D01*
X127646Y65892D01*
Y65895D01*
X127638Y65899D01*
X127631Y65910D01*
X127624Y65925D01*
X127613Y65943D01*
X127598Y65961D01*
X127573Y66015D01*
X127547Y66081D01*
X127522Y66157D01*
X127507Y66249D01*
X127500Y66347D01*
Y66383D01*
X127504Y66409D01*
X127507Y66438D01*
X127515Y66474D01*
X127522Y66514D01*
X127533Y66558D01*
X127547Y66602D01*
X127562Y66649D01*
X127584Y66696D01*
X127609Y66743D01*
X127638Y66791D01*
X127675Y66838D01*
X127715Y66882D01*
X127758Y66922D01*
X127762Y66926D01*
X127773Y66933D01*
X127791Y66944D01*
X127820Y66962D01*
X127853Y66980D01*
X127897Y66998D01*
X127948Y67024D01*
X128006Y67046D01*
X128071Y67067D01*
X128148Y67089D01*
X128232Y67111D01*
X128326Y67129D01*
X128428Y67147D01*
X128537Y67159D01*
X128657Y67166D01*
X128785Y67169D01*
X128788D01*
X128803D01*
X128829D01*
X128858D01*
X128898Y67166D01*
D02*
G37*
G36*
X120778Y70032D02*
X120774Y69966D01*
X120771Y69893D01*
X120763Y69821D01*
X120752Y69748D01*
X120741Y69686D01*
Y69682D01*
X120738Y69675D01*
Y69664D01*
X120730Y69650D01*
X120720Y69609D01*
X120701Y69559D01*
X120676Y69500D01*
X120643Y69438D01*
X120607Y69377D01*
X120559Y69318D01*
X120556Y69315D01*
X120552Y69311D01*
X120541Y69300D01*
X120530Y69286D01*
X120494Y69249D01*
X120443Y69205D01*
X120381Y69158D01*
X120308Y69107D01*
X120224Y69060D01*
X120130Y69020D01*
X120126D01*
X120119Y69016D01*
X120104Y69009D01*
X120082Y69005D01*
X120057Y68994D01*
X120028Y68987D01*
X119995Y68980D01*
X119955Y68969D01*
X119915Y68958D01*
X119868Y68951D01*
X119766Y68932D01*
X119653Y68922D01*
X119529Y68918D01*
X119526D01*
X119518D01*
X119500D01*
X119482D01*
X119456Y68922D01*
X119427D01*
X119358Y68925D01*
X119278Y68936D01*
X119194Y68947D01*
X119107Y68965D01*
X119020Y68987D01*
X119016D01*
X119009Y68991D01*
X118998Y68994D01*
X118983Y68998D01*
X118943Y69013D01*
X118892Y69034D01*
X118834Y69056D01*
X118776Y69085D01*
X118714Y69122D01*
X118656Y69158D01*
X118648Y69162D01*
X118630Y69176D01*
X118605Y69198D01*
X118572Y69227D01*
X118535Y69260D01*
X118499Y69300D01*
X118459Y69340D01*
X118426Y69388D01*
X118423Y69395D01*
X118412Y69409D01*
X118397Y69435D01*
X118379Y69471D01*
X118357Y69515D01*
X118339Y69566D01*
X118317Y69624D01*
X118299Y69690D01*
Y69697D01*
X118295Y69708D01*
X118292Y69719D01*
X118288Y69755D01*
X118281Y69806D01*
X118273Y69864D01*
X118266Y69933D01*
X118263Y70010D01*
X118259Y70094D01*
Y71000D01*
X120778D01*
Y70032D01*
D02*
G37*
G36*
X120155Y68346D02*
X120163Y68339D01*
X120166Y68325D01*
X120177Y68306D01*
X120188Y68285D01*
X120203Y68259D01*
X120239Y68197D01*
X120279Y68124D01*
X120330Y68052D01*
X120388Y67975D01*
X120450Y67899D01*
X120454Y67895D01*
X120457Y67891D01*
X120468Y67880D01*
X120479Y67866D01*
X120516Y67833D01*
X120559Y67790D01*
X120610Y67746D01*
X120669Y67699D01*
X120727Y67659D01*
X120789Y67622D01*
Y67422D01*
X118259D01*
Y67731D01*
X120228D01*
X120224Y67735D01*
X120210Y67753D01*
X120188Y67775D01*
X120163Y67811D01*
X120130Y67851D01*
X120093Y67902D01*
X120053Y67961D01*
X120013Y68026D01*
Y68030D01*
X120010Y68033D01*
X119995Y68055D01*
X119977Y68092D01*
X119955Y68135D01*
X119930Y68186D01*
X119904Y68241D01*
X119879Y68296D01*
X119857Y68350D01*
X120155D01*
Y68346D01*
D02*
G37*
G36*
X167887Y21496D02*
X167923D01*
X167960Y21493D01*
X168007Y21489D01*
X168054Y21482D01*
X168160Y21464D01*
X168276Y21438D01*
X168393Y21402D01*
X168506Y21351D01*
X168509Y21347D01*
X168520Y21343D01*
X168535Y21336D01*
X168553Y21322D01*
X168578Y21307D01*
X168607Y21289D01*
X168673Y21242D01*
X168746Y21180D01*
X168819Y21107D01*
X168891Y21023D01*
X168953Y20925D01*
X168957Y20921D01*
X168961Y20910D01*
X168968Y20896D01*
X168979Y20878D01*
X168990Y20849D01*
X169001Y20819D01*
X169015Y20783D01*
X169030Y20743D01*
X169044Y20699D01*
X169059Y20652D01*
X169081Y20550D01*
X169099Y20434D01*
X169106Y20313D01*
Y20277D01*
X169103Y20252D01*
X169099Y20219D01*
X169095Y20179D01*
X169092Y20139D01*
X169081Y20091D01*
X169059Y19993D01*
X169026Y19884D01*
X169004Y19829D01*
X168979Y19778D01*
X168946Y19727D01*
X168913Y19676D01*
X168910Y19673D01*
X168906Y19666D01*
X168895Y19651D01*
X168877Y19633D01*
X168859Y19614D01*
X168833Y19589D01*
X168804Y19564D01*
X168775Y19534D01*
X168739Y19505D01*
X168695Y19476D01*
X168651Y19443D01*
X168604Y19414D01*
X168549Y19389D01*
X168495Y19360D01*
X168436Y19338D01*
X168371Y19316D01*
X168295Y19644D01*
X168298D01*
X168305Y19647D01*
X168320Y19655D01*
X168338Y19662D01*
X168360Y19669D01*
X168389Y19680D01*
X168447Y19709D01*
X168513Y19746D01*
X168578Y19789D01*
X168640Y19844D01*
X168695Y19902D01*
X168702Y19909D01*
X168717Y19931D01*
X168735Y19968D01*
X168760Y20015D01*
X168782Y20077D01*
X168804Y20146D01*
X168819Y20230D01*
X168822Y20321D01*
Y20350D01*
X168819Y20368D01*
Y20393D01*
X168815Y20423D01*
X168804Y20492D01*
X168790Y20568D01*
X168764Y20648D01*
X168728Y20732D01*
X168680Y20808D01*
Y20812D01*
X168673Y20816D01*
X168655Y20841D01*
X168626Y20874D01*
X168582Y20914D01*
X168527Y20961D01*
X168466Y21005D01*
X168389Y21045D01*
X168305Y21081D01*
X168302D01*
X168295Y21085D01*
X168283Y21089D01*
X168265Y21092D01*
X168244Y21100D01*
X168218Y21107D01*
X168156Y21118D01*
X168083Y21132D01*
X168003Y21147D01*
X167916Y21154D01*
X167821Y21158D01*
X167818D01*
X167807D01*
X167789D01*
X167767D01*
X167741Y21154D01*
X167708D01*
X167672Y21151D01*
X167632Y21147D01*
X167545Y21136D01*
X167450Y21118D01*
X167355Y21096D01*
X167261Y21067D01*
X167257D01*
X167250Y21063D01*
X167239Y21056D01*
X167221Y21049D01*
X167177Y21027D01*
X167126Y20994D01*
X167068Y20954D01*
X167006Y20903D01*
X166951Y20845D01*
X166900Y20776D01*
Y20772D01*
X166897Y20765D01*
X166889Y20754D01*
X166882Y20739D01*
X166875Y20721D01*
X166864Y20699D01*
X166842Y20648D01*
X166820Y20583D01*
X166802Y20510D01*
X166788Y20430D01*
X166784Y20346D01*
Y20321D01*
X166788Y20299D01*
Y20273D01*
X166791Y20248D01*
X166806Y20182D01*
X166824Y20106D01*
X166853Y20030D01*
X166893Y19949D01*
X166915Y19909D01*
X166944Y19873D01*
X166948Y19869D01*
X166951Y19866D01*
X166962Y19855D01*
X166973Y19840D01*
X166991Y19826D01*
X167013Y19807D01*
X167035Y19786D01*
X167064Y19767D01*
X167097Y19746D01*
X167133Y19720D01*
X167170Y19698D01*
X167213Y19676D01*
X167261Y19658D01*
X167312Y19640D01*
X167366Y19622D01*
X167424Y19607D01*
X167341Y19272D01*
X167337D01*
X167323Y19276D01*
X167301Y19283D01*
X167272Y19294D01*
X167239Y19305D01*
X167199Y19320D01*
X167155Y19338D01*
X167108Y19360D01*
X167006Y19411D01*
X166904Y19476D01*
X166853Y19516D01*
X166802Y19556D01*
X166758Y19600D01*
X166715Y19651D01*
X166711Y19655D01*
X166704Y19662D01*
X166697Y19680D01*
X166682Y19698D01*
X166664Y19727D01*
X166646Y19757D01*
X166627Y19796D01*
X166609Y19837D01*
X166587Y19884D01*
X166569Y19935D01*
X166551Y19989D01*
X166533Y20048D01*
X166518Y20109D01*
X166511Y20175D01*
X166504Y20244D01*
X166500Y20317D01*
Y20357D01*
X166504Y20386D01*
Y20419D01*
X166507Y20459D01*
X166515Y20503D01*
X166522Y20554D01*
X166540Y20659D01*
X166569Y20768D01*
X166609Y20878D01*
X166635Y20929D01*
X166664Y20979D01*
X166667Y20983D01*
X166671Y20990D01*
X166682Y21005D01*
X166697Y21020D01*
X166711Y21041D01*
X166733Y21067D01*
X166758Y21096D01*
X166788Y21125D01*
X166820Y21154D01*
X166853Y21187D01*
X166937Y21252D01*
X167035Y21314D01*
X167144Y21369D01*
X167148D01*
X167159Y21376D01*
X167177Y21380D01*
X167199Y21391D01*
X167228Y21398D01*
X167264Y21409D01*
X167304Y21424D01*
X167348Y21434D01*
X167395Y21445D01*
X167450Y21460D01*
X167563Y21478D01*
X167690Y21493D01*
X167821Y21500D01*
X167825D01*
X167840D01*
X167861D01*
X167887Y21496D01*
D02*
G37*
G36*
X167228Y18665D02*
X167224D01*
X167217D01*
X167206Y18661D01*
X167188Y18657D01*
X167148Y18646D01*
X167093Y18632D01*
X167039Y18610D01*
X166977Y18581D01*
X166922Y18544D01*
X166871Y18501D01*
X166868Y18493D01*
X166853Y18479D01*
X166835Y18450D01*
X166813Y18410D01*
X166791Y18366D01*
X166773Y18311D01*
X166758Y18249D01*
X166755Y18180D01*
Y18158D01*
X166758Y18144D01*
X166762Y18100D01*
X166777Y18049D01*
X166795Y17987D01*
X166824Y17926D01*
X166868Y17860D01*
X166893Y17831D01*
X166922Y17802D01*
X166926Y17798D01*
X166929Y17795D01*
X166940Y17787D01*
X166951Y17776D01*
X166991Y17751D01*
X167042Y17722D01*
X167104Y17696D01*
X167181Y17671D01*
X167272Y17652D01*
X167319Y17645D01*
X167370D01*
X167374D01*
X167381D01*
X167395D01*
X167414Y17649D01*
X167435D01*
X167461Y17652D01*
X167519Y17663D01*
X167588Y17682D01*
X167657Y17707D01*
X167723Y17743D01*
X167785Y17795D01*
X167789D01*
X167792Y17802D01*
X167810Y17820D01*
X167836Y17853D01*
X167865Y17896D01*
X167890Y17955D01*
X167916Y18020D01*
X167934Y18097D01*
X167941Y18140D01*
Y18210D01*
X167938Y18239D01*
X167934Y18275D01*
X167923Y18319D01*
X167912Y18362D01*
X167894Y18410D01*
X167872Y18457D01*
X167869Y18461D01*
X167861Y18475D01*
X167843Y18497D01*
X167825Y18526D01*
X167799Y18555D01*
X167767Y18584D01*
X167734Y18617D01*
X167694Y18643D01*
X167734Y18934D01*
X169030Y18690D01*
Y17438D01*
X168735D01*
Y18446D01*
X168054Y18581D01*
X168058Y18577D01*
X168061Y18570D01*
X168069Y18559D01*
X168080Y18541D01*
X168091Y18519D01*
X168105Y18493D01*
X168134Y18435D01*
X168163Y18362D01*
X168189Y18282D01*
X168207Y18195D01*
X168214Y18151D01*
Y18071D01*
X168211Y18049D01*
X168207Y18020D01*
X168203Y17987D01*
X168196Y17951D01*
X168185Y17911D01*
X168160Y17824D01*
X168142Y17776D01*
X168116Y17729D01*
X168091Y17682D01*
X168061Y17634D01*
X168025Y17591D01*
X167985Y17547D01*
X167981Y17543D01*
X167974Y17536D01*
X167963Y17525D01*
X167945Y17511D01*
X167920Y17492D01*
X167894Y17474D01*
X167861Y17452D01*
X167825Y17431D01*
X167785Y17412D01*
X167741Y17391D01*
X167690Y17372D01*
X167639Y17354D01*
X167585Y17339D01*
X167523Y17329D01*
X167461Y17321D01*
X167395Y17318D01*
X167392D01*
X167381D01*
X167363D01*
X167337Y17321D01*
X167308Y17325D01*
X167275Y17329D01*
X167235Y17336D01*
X167195Y17343D01*
X167101Y17365D01*
X167002Y17401D01*
X166951Y17423D01*
X166904Y17452D01*
X166853Y17481D01*
X166806Y17518D01*
X166802Y17522D01*
X166791Y17529D01*
X166777Y17543D01*
X166758Y17561D01*
X166737Y17587D01*
X166707Y17616D01*
X166682Y17652D01*
X166653Y17693D01*
X166624Y17736D01*
X166598Y17787D01*
X166573Y17842D01*
X166547Y17900D01*
X166529Y17962D01*
X166515Y18031D01*
X166504Y18104D01*
X166500Y18180D01*
Y18213D01*
X166504Y18239D01*
X166507Y18268D01*
X166511Y18301D01*
X166515Y18340D01*
X166525Y18381D01*
X166547Y18472D01*
X166580Y18563D01*
X166602Y18610D01*
X166627Y18657D01*
X166656Y18701D01*
X166689Y18745D01*
X166693Y18748D01*
X166697Y18756D01*
X166711Y18763D01*
X166726Y18777D01*
X166744Y18796D01*
X166766Y18814D01*
X166795Y18836D01*
X166827Y18854D01*
X166860Y18876D01*
X166900Y18897D01*
X166988Y18937D01*
X167090Y18970D01*
X167144Y18981D01*
X167202Y18988D01*
X167228Y18665D01*
D02*
G37*
G36*
X160844Y48496D02*
X160873Y48493D01*
X160906Y48489D01*
X160942Y48482D01*
X160983Y48474D01*
X161070Y48453D01*
X161161Y48416D01*
X161208Y48395D01*
X161252Y48369D01*
X161295Y48336D01*
X161339Y48303D01*
X161343Y48300D01*
X161350Y48292D01*
X161361Y48282D01*
X161372Y48267D01*
X161390Y48249D01*
X161408Y48223D01*
X161430Y48198D01*
X161452Y48165D01*
X161474Y48129D01*
X161496Y48092D01*
X161536Y48005D01*
X161568Y47903D01*
X161579Y47848D01*
X161587Y47790D01*
X161277Y47750D01*
Y47754D01*
X161274Y47761D01*
X161270Y47776D01*
X161266Y47794D01*
X161263Y47816D01*
X161256Y47841D01*
X161237Y47896D01*
X161212Y47961D01*
X161179Y48023D01*
X161143Y48081D01*
X161099Y48132D01*
X161092Y48136D01*
X161077Y48151D01*
X161048Y48169D01*
X161012Y48187D01*
X160968Y48209D01*
X160913Y48227D01*
X160851Y48242D01*
X160786Y48245D01*
X160764D01*
X160749Y48242D01*
X160710Y48238D01*
X160659Y48227D01*
X160600Y48209D01*
X160538Y48183D01*
X160477Y48147D01*
X160418Y48096D01*
X160411Y48089D01*
X160393Y48067D01*
X160371Y48034D01*
X160342Y47990D01*
X160313Y47936D01*
X160291Y47874D01*
X160273Y47801D01*
X160265Y47721D01*
Y47717D01*
Y47710D01*
Y47699D01*
X160269Y47685D01*
X160273Y47645D01*
X160284Y47597D01*
X160298Y47539D01*
X160324Y47481D01*
X160360Y47423D01*
X160407Y47368D01*
X160415Y47361D01*
X160433Y47346D01*
X160462Y47324D01*
X160502Y47299D01*
X160553Y47273D01*
X160615Y47251D01*
X160684Y47237D01*
X160760Y47230D01*
X160793D01*
X160819Y47233D01*
X160851Y47237D01*
X160888Y47244D01*
X160932Y47251D01*
X160979Y47262D01*
X160942Y46989D01*
X160924D01*
X160910Y46993D01*
X160862D01*
X160822Y46986D01*
X160775Y46979D01*
X160720Y46968D01*
X160659Y46949D01*
X160600Y46924D01*
X160538Y46891D01*
X160535D01*
X160531Y46887D01*
X160513Y46873D01*
X160487Y46848D01*
X160458Y46815D01*
X160429Y46767D01*
X160404Y46713D01*
X160386Y46651D01*
X160378Y46615D01*
Y46575D01*
Y46571D01*
Y46567D01*
Y46545D01*
X160386Y46516D01*
X160393Y46476D01*
X160407Y46433D01*
X160425Y46385D01*
X160455Y46338D01*
X160495Y46294D01*
X160498Y46291D01*
X160517Y46276D01*
X160542Y46258D01*
X160575Y46236D01*
X160618Y46218D01*
X160669Y46200D01*
X160728Y46185D01*
X160793Y46181D01*
X160822D01*
X160855Y46189D01*
X160899Y46196D01*
X160946Y46211D01*
X160993Y46229D01*
X161044Y46258D01*
X161092Y46294D01*
X161095Y46298D01*
X161110Y46316D01*
X161132Y46341D01*
X161157Y46378D01*
X161183Y46425D01*
X161208Y46483D01*
X161230Y46553D01*
X161245Y46633D01*
X161554Y46578D01*
Y46575D01*
X161550Y46564D01*
X161547Y46549D01*
X161543Y46527D01*
X161536Y46502D01*
X161525Y46473D01*
X161503Y46403D01*
X161467Y46323D01*
X161423Y46243D01*
X161368Y46167D01*
X161299Y46098D01*
X161295Y46094D01*
X161288Y46090D01*
X161277Y46083D01*
X161263Y46072D01*
X161245Y46058D01*
X161219Y46043D01*
X161194Y46029D01*
X161161Y46010D01*
X161088Y45981D01*
X161004Y45952D01*
X160906Y45934D01*
X160855Y45926D01*
X160764D01*
X160724Y45930D01*
X160677Y45937D01*
X160618Y45948D01*
X160553Y45967D01*
X160487Y45988D01*
X160422Y46018D01*
X160418D01*
X160415Y46021D01*
X160393Y46032D01*
X160360Y46054D01*
X160324Y46079D01*
X160280Y46116D01*
X160236Y46156D01*
X160193Y46203D01*
X160156Y46258D01*
X160152Y46265D01*
X160142Y46283D01*
X160127Y46316D01*
X160109Y46356D01*
X160091Y46403D01*
X160076Y46458D01*
X160065Y46520D01*
X160062Y46582D01*
Y46589D01*
Y46611D01*
X160065Y46640D01*
X160073Y46680D01*
X160083Y46727D01*
X160102Y46778D01*
X160123Y46829D01*
X160152Y46880D01*
X160156Y46887D01*
X160167Y46902D01*
X160189Y46928D01*
X160218Y46957D01*
X160255Y46989D01*
X160298Y47026D01*
X160349Y47059D01*
X160411Y47091D01*
X160407D01*
X160400Y47095D01*
X160389Y47099D01*
X160375Y47102D01*
X160335Y47117D01*
X160284Y47139D01*
X160225Y47168D01*
X160167Y47204D01*
X160113Y47251D01*
X160062Y47306D01*
X160058Y47313D01*
X160043Y47335D01*
X160021Y47372D01*
X160000Y47419D01*
X159978Y47477D01*
X159956Y47546D01*
X159941Y47626D01*
X159938Y47714D01*
Y47717D01*
Y47728D01*
Y47747D01*
X159941Y47768D01*
X159945Y47798D01*
X159952Y47830D01*
X159960Y47867D01*
X159967Y47907D01*
X159996Y47994D01*
X160018Y48041D01*
X160040Y48085D01*
X160069Y48132D01*
X160102Y48180D01*
X160138Y48227D01*
X160182Y48271D01*
X160185Y48274D01*
X160193Y48282D01*
X160207Y48292D01*
X160225Y48307D01*
X160247Y48325D01*
X160276Y48344D01*
X160309Y48365D01*
X160349Y48384D01*
X160389Y48405D01*
X160436Y48427D01*
X160484Y48445D01*
X160538Y48464D01*
X160597Y48478D01*
X160659Y48489D01*
X160720Y48496D01*
X160790Y48500D01*
X160822D01*
X160844Y48496D01*
D02*
G37*
G36*
X164000Y45937D02*
X162832D01*
X162803Y45941D01*
X162770D01*
X162693Y45945D01*
X162613Y45956D01*
X162526Y45967D01*
X162446Y45985D01*
X162406Y45996D01*
X162373Y46007D01*
X162369D01*
X162366Y46010D01*
X162344Y46021D01*
X162311Y46036D01*
X162271Y46061D01*
X162227Y46094D01*
X162180Y46138D01*
X162136Y46189D01*
X162093Y46247D01*
Y46251D01*
X162089Y46254D01*
X162074Y46276D01*
X162060Y46312D01*
X162038Y46360D01*
X162020Y46414D01*
X162002Y46480D01*
X161991Y46549D01*
X161987Y46625D01*
Y46629D01*
Y46636D01*
Y46651D01*
X161991Y46669D01*
Y46695D01*
X161994Y46720D01*
X162009Y46782D01*
X162031Y46855D01*
X162060Y46931D01*
X162104Y47008D01*
X162133Y47044D01*
X162162Y47080D01*
X162165Y47084D01*
X162169Y47088D01*
X162180Y47099D01*
X162195Y47110D01*
X162213Y47124D01*
X162235Y47139D01*
X162264Y47157D01*
X162293Y47179D01*
X162329Y47197D01*
X162369Y47215D01*
X162413Y47237D01*
X162460Y47255D01*
X162515Y47270D01*
X162569Y47288D01*
X162631Y47299D01*
X162697Y47310D01*
X162690Y47313D01*
X162675Y47321D01*
X162653Y47335D01*
X162624Y47350D01*
X162559Y47390D01*
X162526Y47415D01*
X162497Y47437D01*
X162489Y47444D01*
X162471Y47463D01*
X162442Y47492D01*
X162406Y47528D01*
X162366Y47579D01*
X162318Y47634D01*
X162271Y47699D01*
X162220Y47772D01*
X161787Y48456D01*
X162202D01*
X162533Y47932D01*
Y47929D01*
X162540Y47921D01*
X162548Y47910D01*
X162559Y47896D01*
X162584Y47856D01*
X162617Y47805D01*
X162657Y47750D01*
X162697Y47692D01*
X162737Y47637D01*
X162773Y47586D01*
X162777Y47583D01*
X162788Y47568D01*
X162806Y47546D01*
X162832Y47521D01*
X162886Y47466D01*
X162915Y47441D01*
X162944Y47419D01*
X162948Y47415D01*
X162955Y47412D01*
X162970Y47404D01*
X162992Y47394D01*
X163014Y47383D01*
X163039Y47372D01*
X163097Y47353D01*
X163101D01*
X163108Y47350D01*
X163123D01*
X163141Y47346D01*
X163166Y47343D01*
X163196D01*
X163236Y47339D01*
X163665D01*
Y48456D01*
X164000D01*
Y45937D01*
D02*
G37*
G36*
X147956Y74867D02*
X145987D01*
X145991Y74863D01*
X146005Y74845D01*
X146027Y74823D01*
X146053Y74787D01*
X146085Y74747D01*
X146122Y74696D01*
X146162Y74638D01*
X146202Y74572D01*
Y74568D01*
X146205Y74565D01*
X146220Y74543D01*
X146238Y74507D01*
X146260Y74463D01*
X146286Y74412D01*
X146311Y74357D01*
X146337Y74303D01*
X146358Y74248D01*
X146060D01*
Y74252D01*
X146053Y74259D01*
X146049Y74274D01*
X146038Y74292D01*
X146027Y74314D01*
X146013Y74339D01*
X145976Y74401D01*
X145936Y74474D01*
X145885Y74547D01*
X145827Y74623D01*
X145765Y74699D01*
X145761Y74703D01*
X145758Y74707D01*
X145747Y74718D01*
X145736Y74732D01*
X145700Y74765D01*
X145656Y74809D01*
X145605Y74852D01*
X145547Y74900D01*
X145488Y74940D01*
X145426Y74976D01*
Y75176D01*
X147956D01*
Y74867D01*
D02*
G37*
G36*
X147177Y73724D02*
X147199Y73717D01*
X147228Y73706D01*
X147261Y73695D01*
X147301Y73680D01*
X147345Y73662D01*
X147392Y73640D01*
X147494Y73589D01*
X147596Y73524D01*
X147647Y73484D01*
X147698Y73444D01*
X147742Y73400D01*
X147785Y73349D01*
X147789Y73345D01*
X147796Y73338D01*
X147803Y73320D01*
X147818Y73302D01*
X147836Y73273D01*
X147854Y73243D01*
X147873Y73203D01*
X147891Y73163D01*
X147913Y73116D01*
X147931Y73065D01*
X147949Y73011D01*
X147967Y72952D01*
X147982Y72890D01*
X147989Y72825D01*
X147996Y72756D01*
X148000Y72683D01*
Y72643D01*
X147996Y72614D01*
Y72581D01*
X147993Y72541D01*
X147985Y72497D01*
X147978Y72446D01*
X147960Y72341D01*
X147931Y72232D01*
X147891Y72122D01*
X147865Y72071D01*
X147836Y72021D01*
X147833Y72017D01*
X147829Y72010D01*
X147818Y71995D01*
X147803Y71980D01*
X147789Y71959D01*
X147767Y71933D01*
X147742Y71904D01*
X147713Y71875D01*
X147680Y71846D01*
X147647Y71813D01*
X147563Y71747D01*
X147465Y71686D01*
X147356Y71631D01*
X147352D01*
X147341Y71624D01*
X147323Y71620D01*
X147301Y71609D01*
X147272Y71602D01*
X147236Y71591D01*
X147196Y71576D01*
X147152Y71566D01*
X147105Y71554D01*
X147050Y71540D01*
X146937Y71522D01*
X146810Y71507D01*
X146679Y71500D01*
X146675D01*
X146660D01*
X146639D01*
X146613Y71504D01*
X146577D01*
X146540Y71507D01*
X146493Y71511D01*
X146446Y71518D01*
X146340Y71536D01*
X146224Y71562D01*
X146107Y71598D01*
X145994Y71649D01*
X145991Y71653D01*
X145980Y71657D01*
X145965Y71664D01*
X145947Y71678D01*
X145922Y71693D01*
X145893Y71711D01*
X145827Y71758D01*
X145754Y71820D01*
X145681Y71893D01*
X145608Y71977D01*
X145547Y72075D01*
X145543Y72079D01*
X145539Y72090D01*
X145532Y72104D01*
X145521Y72122D01*
X145510Y72151D01*
X145499Y72181D01*
X145485Y72217D01*
X145470Y72257D01*
X145456Y72301D01*
X145441Y72348D01*
X145419Y72450D01*
X145401Y72566D01*
X145394Y72687D01*
Y72723D01*
X145397Y72749D01*
X145401Y72781D01*
X145405Y72821D01*
X145408Y72861D01*
X145419Y72909D01*
X145441Y73007D01*
X145474Y73116D01*
X145496Y73171D01*
X145521Y73222D01*
X145554Y73273D01*
X145587Y73324D01*
X145590Y73327D01*
X145594Y73334D01*
X145605Y73349D01*
X145623Y73367D01*
X145641Y73386D01*
X145667Y73411D01*
X145696Y73436D01*
X145725Y73466D01*
X145761Y73495D01*
X145805Y73524D01*
X145849Y73557D01*
X145896Y73586D01*
X145951Y73611D01*
X146005Y73640D01*
X146064Y73662D01*
X146129Y73684D01*
X146205Y73356D01*
X146202D01*
X146195Y73353D01*
X146180Y73345D01*
X146162Y73338D01*
X146140Y73331D01*
X146111Y73320D01*
X146053Y73291D01*
X145987Y73254D01*
X145922Y73211D01*
X145860Y73156D01*
X145805Y73098D01*
X145798Y73091D01*
X145783Y73069D01*
X145765Y73032D01*
X145740Y72985D01*
X145718Y72923D01*
X145696Y72854D01*
X145681Y72770D01*
X145678Y72679D01*
Y72650D01*
X145681Y72632D01*
Y72606D01*
X145685Y72577D01*
X145696Y72508D01*
X145711Y72432D01*
X145736Y72352D01*
X145772Y72268D01*
X145820Y72192D01*
Y72188D01*
X145827Y72184D01*
X145845Y72159D01*
X145874Y72126D01*
X145918Y72086D01*
X145973Y72039D01*
X146034Y71995D01*
X146111Y71955D01*
X146195Y71919D01*
X146198D01*
X146205Y71915D01*
X146216Y71911D01*
X146235Y71908D01*
X146256Y71900D01*
X146282Y71893D01*
X146344Y71882D01*
X146417Y71868D01*
X146497Y71853D01*
X146584Y71846D01*
X146679Y71842D01*
X146682D01*
X146693D01*
X146712D01*
X146733D01*
X146759Y71846D01*
X146792D01*
X146828Y71849D01*
X146868Y71853D01*
X146955Y71864D01*
X147050Y71882D01*
X147145Y71904D01*
X147239Y71933D01*
X147243D01*
X147250Y71937D01*
X147261Y71944D01*
X147279Y71951D01*
X147323Y71973D01*
X147374Y72006D01*
X147432Y72046D01*
X147494Y72097D01*
X147549Y72155D01*
X147600Y72224D01*
Y72228D01*
X147603Y72235D01*
X147610Y72246D01*
X147618Y72261D01*
X147625Y72279D01*
X147636Y72301D01*
X147658Y72352D01*
X147680Y72417D01*
X147698Y72490D01*
X147713Y72570D01*
X147716Y72654D01*
Y72679D01*
X147713Y72701D01*
Y72727D01*
X147709Y72752D01*
X147694Y72818D01*
X147676Y72894D01*
X147647Y72970D01*
X147607Y73051D01*
X147585Y73091D01*
X147556Y73127D01*
X147552Y73131D01*
X147549Y73134D01*
X147538Y73145D01*
X147527Y73160D01*
X147509Y73174D01*
X147487Y73193D01*
X147465Y73214D01*
X147436Y73233D01*
X147403Y73254D01*
X147367Y73280D01*
X147330Y73302D01*
X147287Y73324D01*
X147239Y73342D01*
X147188Y73360D01*
X147134Y73378D01*
X147075Y73393D01*
X147159Y73728D01*
X147163D01*
X147177Y73724D01*
D02*
G37*
G36*
X164000Y52981D02*
X162832D01*
X162803Y52985D01*
X162770D01*
X162693Y52988D01*
X162613Y52999D01*
X162526Y53010D01*
X162446Y53029D01*
X162406Y53039D01*
X162373Y53050D01*
X162369D01*
X162366Y53054D01*
X162344Y53065D01*
X162311Y53079D01*
X162271Y53105D01*
X162227Y53138D01*
X162180Y53181D01*
X162136Y53232D01*
X162093Y53290D01*
Y53294D01*
X162089Y53298D01*
X162074Y53320D01*
X162060Y53356D01*
X162038Y53403D01*
X162020Y53458D01*
X162002Y53523D01*
X161991Y53593D01*
X161987Y53669D01*
Y53673D01*
Y53680D01*
Y53695D01*
X161991Y53713D01*
Y53738D01*
X161994Y53764D01*
X162009Y53826D01*
X162031Y53898D01*
X162060Y53975D01*
X162104Y54051D01*
X162133Y54088D01*
X162162Y54124D01*
X162165Y54128D01*
X162169Y54131D01*
X162180Y54142D01*
X162195Y54153D01*
X162213Y54168D01*
X162235Y54182D01*
X162264Y54201D01*
X162293Y54222D01*
X162329Y54241D01*
X162369Y54259D01*
X162413Y54281D01*
X162460Y54299D01*
X162515Y54313D01*
X162569Y54332D01*
X162631Y54343D01*
X162697Y54353D01*
X162690Y54357D01*
X162675Y54364D01*
X162653Y54379D01*
X162624Y54394D01*
X162559Y54434D01*
X162526Y54459D01*
X162497Y54481D01*
X162489Y54488D01*
X162471Y54506D01*
X162442Y54535D01*
X162406Y54572D01*
X162366Y54623D01*
X162318Y54677D01*
X162271Y54743D01*
X162220Y54816D01*
X161787Y55500D01*
X162202D01*
X162533Y54976D01*
Y54972D01*
X162540Y54965D01*
X162548Y54954D01*
X162559Y54940D01*
X162584Y54899D01*
X162617Y54848D01*
X162657Y54794D01*
X162697Y54736D01*
X162737Y54681D01*
X162773Y54630D01*
X162777Y54626D01*
X162788Y54612D01*
X162806Y54590D01*
X162832Y54564D01*
X162886Y54510D01*
X162915Y54484D01*
X162944Y54463D01*
X162948Y54459D01*
X162955Y54455D01*
X162970Y54448D01*
X162992Y54437D01*
X163014Y54426D01*
X163039Y54415D01*
X163097Y54397D01*
X163101D01*
X163108Y54394D01*
X163123D01*
X163141Y54390D01*
X163166Y54386D01*
X163196D01*
X163236Y54383D01*
X163665D01*
Y55500D01*
X164000D01*
Y52981D01*
D02*
G37*
G36*
X161634Y55496D02*
Y55482D01*
Y55460D01*
X161630Y55431D01*
X161627Y55398D01*
X161619Y55362D01*
X161612Y55325D01*
X161598Y55285D01*
Y55282D01*
X161594Y55278D01*
X161587Y55256D01*
X161572Y55223D01*
X161550Y55180D01*
X161521Y55129D01*
X161485Y55071D01*
X161445Y55012D01*
X161394Y54950D01*
Y54947D01*
X161387Y54943D01*
X161368Y54921D01*
X161336Y54888D01*
X161288Y54841D01*
X161234Y54787D01*
X161164Y54721D01*
X161081Y54648D01*
X160990Y54572D01*
X160986Y54568D01*
X160972Y54557D01*
X160950Y54539D01*
X160924Y54517D01*
X160891Y54488D01*
X160851Y54455D01*
X160811Y54419D01*
X160764Y54379D01*
X160673Y54291D01*
X160582Y54204D01*
X160538Y54160D01*
X160498Y54117D01*
X160462Y54077D01*
X160433Y54037D01*
Y54033D01*
X160425Y54030D01*
X160418Y54019D01*
X160411Y54004D01*
X160386Y53964D01*
X160356Y53917D01*
X160331Y53858D01*
X160305Y53796D01*
X160291Y53727D01*
X160284Y53662D01*
Y53658D01*
Y53654D01*
X160287Y53633D01*
X160291Y53596D01*
X160302Y53556D01*
X160316Y53505D01*
X160342Y53454D01*
X160375Y53403D01*
X160418Y53352D01*
X160425Y53345D01*
X160444Y53331D01*
X160469Y53312D01*
X160509Y53287D01*
X160560Y53265D01*
X160618Y53243D01*
X160688Y53229D01*
X160764Y53225D01*
X160786D01*
X160801Y53229D01*
X160844Y53232D01*
X160895Y53243D01*
X160950Y53258D01*
X161012Y53283D01*
X161070Y53316D01*
X161124Y53360D01*
X161132Y53367D01*
X161146Y53385D01*
X161168Y53414D01*
X161190Y53458D01*
X161215Y53509D01*
X161237Y53575D01*
X161252Y53647D01*
X161259Y53731D01*
X161576Y53698D01*
Y53695D01*
X161572Y53684D01*
Y53666D01*
X161568Y53640D01*
X161561Y53611D01*
X161554Y53578D01*
X161543Y53538D01*
X161532Y53498D01*
X161503Y53411D01*
X161459Y53323D01*
X161434Y53280D01*
X161401Y53236D01*
X161368Y53196D01*
X161332Y53159D01*
X161328Y53156D01*
X161321Y53152D01*
X161310Y53141D01*
X161292Y53130D01*
X161270Y53116D01*
X161245Y53101D01*
X161215Y53083D01*
X161179Y53065D01*
X161139Y53047D01*
X161095Y53029D01*
X161048Y53014D01*
X160997Y52999D01*
X160942Y52988D01*
X160884Y52978D01*
X160822Y52974D01*
X160757Y52970D01*
X160720D01*
X160695Y52974D01*
X160666Y52978D01*
X160629Y52981D01*
X160589Y52988D01*
X160549Y52996D01*
X160455Y53021D01*
X160360Y53058D01*
X160313Y53079D01*
X160265Y53105D01*
X160222Y53138D01*
X160182Y53174D01*
X160178Y53178D01*
X160171Y53181D01*
X160163Y53196D01*
X160149Y53211D01*
X160131Y53229D01*
X160113Y53254D01*
X160094Y53280D01*
X160073Y53312D01*
X160036Y53382D01*
X160000Y53469D01*
X159985Y53513D01*
X159978Y53563D01*
X159971Y53614D01*
X159967Y53669D01*
Y53676D01*
Y53695D01*
X159971Y53724D01*
X159974Y53764D01*
X159982Y53807D01*
X159996Y53858D01*
X160011Y53913D01*
X160032Y53968D01*
X160036Y53975D01*
X160043Y53993D01*
X160058Y54022D01*
X160080Y54062D01*
X160109Y54106D01*
X160145Y54160D01*
X160189Y54215D01*
X160240Y54277D01*
X160247Y54284D01*
X160265Y54306D01*
X160284Y54324D01*
X160302Y54343D01*
X160324Y54364D01*
X160353Y54394D01*
X160382Y54423D01*
X160418Y54455D01*
X160455Y54492D01*
X160498Y54532D01*
X160546Y54572D01*
X160597Y54619D01*
X160655Y54667D01*
X160713Y54717D01*
X160717Y54721D01*
X160724Y54728D01*
X160739Y54739D01*
X160757Y54754D01*
X160779Y54776D01*
X160804Y54798D01*
X160862Y54845D01*
X160924Y54899D01*
X160983Y54954D01*
X161033Y55001D01*
X161055Y55020D01*
X161074Y55038D01*
X161077Y55041D01*
X161088Y55052D01*
X161103Y55067D01*
X161121Y55089D01*
X161139Y55114D01*
X161161Y55140D01*
X161205Y55202D01*
X159963D01*
Y55500D01*
X161634D01*
Y55496D01*
D02*
G37*
G36*
X181019Y19832D02*
X181015Y19803D01*
Y19770D01*
X181012Y19693D01*
X181001Y19613D01*
X180990Y19526D01*
X180972Y19446D01*
X180961Y19406D01*
X180950Y19373D01*
Y19369D01*
X180946Y19366D01*
X180935Y19344D01*
X180921Y19311D01*
X180895Y19271D01*
X180862Y19227D01*
X180819Y19180D01*
X180768Y19136D01*
X180709Y19093D01*
X180706D01*
X180702Y19089D01*
X180680Y19074D01*
X180644Y19060D01*
X180597Y19038D01*
X180542Y19020D01*
X180476Y19002D01*
X180407Y18991D01*
X180331Y18987D01*
X180327D01*
X180320D01*
X180305D01*
X180287Y18991D01*
X180262D01*
X180236Y18994D01*
X180174Y19009D01*
X180102Y19031D01*
X180025Y19060D01*
X179949Y19104D01*
X179912Y19133D01*
X179876Y19162D01*
X179872Y19165D01*
X179869Y19169D01*
X179858Y19180D01*
X179847Y19195D01*
X179832Y19213D01*
X179818Y19235D01*
X179799Y19264D01*
X179778Y19293D01*
X179759Y19329D01*
X179741Y19369D01*
X179719Y19413D01*
X179701Y19460D01*
X179687Y19515D01*
X179668Y19569D01*
X179657Y19631D01*
X179647Y19697D01*
X179643Y19690D01*
X179636Y19675D01*
X179621Y19653D01*
X179606Y19624D01*
X179567Y19559D01*
X179541Y19526D01*
X179519Y19497D01*
X179512Y19489D01*
X179494Y19471D01*
X179465Y19442D01*
X179428Y19406D01*
X179377Y19366D01*
X179323Y19318D01*
X179257Y19271D01*
X179184Y19220D01*
X178500Y18787D01*
Y19202D01*
X179024Y19533D01*
X179028D01*
X179035Y19540D01*
X179046Y19548D01*
X179060Y19559D01*
X179101Y19584D01*
X179151Y19617D01*
X179206Y19657D01*
X179264Y19697D01*
X179319Y19737D01*
X179370Y19773D01*
X179374Y19777D01*
X179388Y19788D01*
X179410Y19806D01*
X179435Y19832D01*
X179490Y19886D01*
X179516Y19915D01*
X179537Y19944D01*
X179541Y19948D01*
X179545Y19955D01*
X179552Y19970D01*
X179563Y19992D01*
X179574Y20014D01*
X179585Y20039D01*
X179603Y20097D01*
Y20101D01*
X179606Y20108D01*
Y20123D01*
X179610Y20141D01*
X179614Y20166D01*
Y20196D01*
X179617Y20236D01*
Y20665D01*
X178500D01*
Y21000D01*
X181019D01*
Y19832D01*
D02*
G37*
G36*
X180396Y18350D02*
X180404Y18343D01*
X180407Y18328D01*
X180418Y18310D01*
X180429Y18288D01*
X180444Y18263D01*
X180480Y18201D01*
X180520Y18128D01*
X180571Y18055D01*
X180629Y17979D01*
X180691Y17902D01*
X180695Y17899D01*
X180699Y17895D01*
X180709Y17884D01*
X180720Y17870D01*
X180757Y17837D01*
X180800Y17793D01*
X180851Y17750D01*
X180910Y17702D01*
X180968Y17662D01*
X181030Y17626D01*
Y17426D01*
X178500D01*
Y17735D01*
X180469D01*
X180466Y17739D01*
X180451Y17757D01*
X180429Y17779D01*
X180404Y17815D01*
X180371Y17855D01*
X180334Y17906D01*
X180295Y17964D01*
X180254Y18030D01*
Y18033D01*
X180251Y18037D01*
X180236Y18059D01*
X180218Y18095D01*
X180196Y18139D01*
X180171Y18190D01*
X180145Y18245D01*
X180120Y18299D01*
X180098Y18354D01*
X180396D01*
Y18350D01*
D02*
G37*
G36*
X177396Y67459D02*
X178000D01*
Y67150D01*
X177396D01*
Y66054D01*
X177112D01*
X175481Y67208D01*
Y67459D01*
X177112D01*
Y67801D01*
X177396D01*
Y67459D01*
D02*
G37*
G36*
X178000Y65548D02*
X177476Y65217D01*
X177472D01*
X177465Y65210D01*
X177454Y65202D01*
X177439Y65191D01*
X177399Y65166D01*
X177348Y65133D01*
X177294Y65093D01*
X177236Y65053D01*
X177181Y65013D01*
X177130Y64977D01*
X177126Y64973D01*
X177112Y64962D01*
X177090Y64944D01*
X177065Y64918D01*
X177010Y64864D01*
X176985Y64835D01*
X176963Y64806D01*
X176959Y64802D01*
X176955Y64795D01*
X176948Y64780D01*
X176937Y64758D01*
X176926Y64736D01*
X176915Y64711D01*
X176897Y64653D01*
Y64649D01*
X176893Y64642D01*
Y64627D01*
X176890Y64609D01*
X176886Y64583D01*
Y64554D01*
X176883Y64514D01*
Y64085D01*
X178000D01*
Y63750D01*
X175481D01*
Y64918D01*
X175485Y64947D01*
Y64980D01*
X175488Y65057D01*
X175499Y65137D01*
X175510Y65224D01*
X175529Y65304D01*
X175539Y65344D01*
X175550Y65377D01*
Y65381D01*
X175554Y65384D01*
X175565Y65406D01*
X175579Y65439D01*
X175605Y65479D01*
X175638Y65523D01*
X175681Y65570D01*
X175732Y65614D01*
X175791Y65657D01*
X175794D01*
X175798Y65661D01*
X175820Y65675D01*
X175856Y65690D01*
X175903Y65712D01*
X175958Y65730D01*
X176023Y65748D01*
X176093Y65759D01*
X176169Y65763D01*
X176173D01*
X176180D01*
X176195D01*
X176213Y65759D01*
X176238D01*
X176264Y65755D01*
X176326Y65741D01*
X176398Y65719D01*
X176475Y65690D01*
X176551Y65646D01*
X176588Y65617D01*
X176624Y65588D01*
X176628Y65584D01*
X176631Y65581D01*
X176642Y65570D01*
X176653Y65555D01*
X176668Y65537D01*
X176682Y65515D01*
X176701Y65486D01*
X176722Y65457D01*
X176741Y65421D01*
X176759Y65381D01*
X176781Y65337D01*
X176799Y65290D01*
X176813Y65235D01*
X176832Y65180D01*
X176842Y65118D01*
X176853Y65053D01*
X176857Y65060D01*
X176864Y65075D01*
X176879Y65097D01*
X176893Y65126D01*
X176934Y65191D01*
X176959Y65224D01*
X176981Y65253D01*
X176988Y65260D01*
X177006Y65279D01*
X177035Y65308D01*
X177072Y65344D01*
X177123Y65384D01*
X177177Y65432D01*
X177243Y65479D01*
X177316Y65530D01*
X178000Y65963D01*
Y65548D01*
D02*
G37*
%LPC*%
G36*
X96754Y40905D02*
X96732D01*
X96718Y40901D01*
X96681Y40898D01*
X96630Y40887D01*
X96576Y40869D01*
X96514Y40839D01*
X96456Y40803D01*
X96397Y40752D01*
X96390Y40745D01*
X96376Y40727D01*
X96350Y40694D01*
X96325Y40647D01*
X96299Y40592D01*
X96274Y40523D01*
X96259Y40446D01*
X96252Y40359D01*
Y40352D01*
Y40334D01*
X96255Y40301D01*
X96259Y40261D01*
X96266Y40213D01*
X96281Y40162D01*
X96295Y40108D01*
X96317Y40053D01*
X96321Y40046D01*
X96332Y40028D01*
X96346Y40002D01*
X96368Y39970D01*
X96394Y39937D01*
X96426Y39897D01*
X96463Y39864D01*
X96507Y39831D01*
X96514Y39828D01*
X96528Y39820D01*
X96554Y39806D01*
X96587Y39795D01*
X96623Y39780D01*
X96667Y39766D01*
X96714Y39758D01*
X96765Y39755D01*
X96783D01*
X96798Y39758D01*
X96834Y39762D01*
X96882Y39773D01*
X96933Y39795D01*
X96991Y39820D01*
X97049Y39860D01*
X97078Y39882D01*
X97104Y39911D01*
Y39915D01*
X97111Y39919D01*
X97125Y39940D01*
X97147Y39977D01*
X97176Y40024D01*
X97202Y40086D01*
X97224Y40159D01*
X97238Y40242D01*
X97246Y40341D01*
Y40344D01*
Y40352D01*
Y40366D01*
X97242Y40385D01*
Y40406D01*
X97238Y40432D01*
X97227Y40490D01*
X97213Y40556D01*
X97187Y40625D01*
X97151Y40690D01*
X97104Y40752D01*
X97096Y40759D01*
X97078Y40778D01*
X97049Y40799D01*
X97009Y40829D01*
X96958Y40858D01*
X96900Y40879D01*
X96831Y40898D01*
X96754Y40905D01*
D02*
G37*
G36*
X94628Y41782D02*
X93835D01*
Y40949D01*
X94585D01*
X94628Y40952D01*
X94679Y40956D01*
X94737Y40960D01*
X94796Y40967D01*
X94854Y40978D01*
X94905Y40992D01*
X94912Y40996D01*
X94927Y41003D01*
X94949Y41014D01*
X94978Y41029D01*
X95011Y41051D01*
X95043Y41076D01*
X95076Y41109D01*
X95101Y41145D01*
X95105Y41149D01*
X95113Y41163D01*
X95123Y41185D01*
X95138Y41214D01*
X95149Y41247D01*
X95160Y41284D01*
X95167Y41327D01*
X95171Y41371D01*
Y41374D01*
Y41378D01*
X95167Y41400D01*
X95163Y41433D01*
X95156Y41477D01*
X95138Y41520D01*
X95116Y41571D01*
X95083Y41618D01*
X95040Y41666D01*
X95032Y41669D01*
X95014Y41684D01*
X94985Y41702D01*
X94938Y41724D01*
X94883Y41746D01*
X94810Y41764D01*
X94727Y41779D01*
X94628Y41782D01*
D02*
G37*
G36*
Y53988D02*
X93835D01*
Y53155D01*
X94585D01*
X94628Y53159D01*
X94679Y53162D01*
X94737Y53166D01*
X94796Y53173D01*
X94854Y53184D01*
X94905Y53199D01*
X94912Y53202D01*
X94927Y53210D01*
X94949Y53220D01*
X94978Y53235D01*
X95011Y53257D01*
X95043Y53282D01*
X95076Y53315D01*
X95101Y53351D01*
X95105Y53355D01*
X95113Y53370D01*
X95123Y53392D01*
X95138Y53421D01*
X95149Y53453D01*
X95160Y53490D01*
X95167Y53534D01*
X95171Y53577D01*
Y53581D01*
Y53584D01*
X95167Y53606D01*
X95163Y53639D01*
X95156Y53683D01*
X95138Y53727D01*
X95116Y53777D01*
X95083Y53825D01*
X95040Y53872D01*
X95032Y53876D01*
X95014Y53890D01*
X94985Y53908D01*
X94938Y53930D01*
X94883Y53952D01*
X94810Y53970D01*
X94727Y53985D01*
X94628Y53988D01*
D02*
G37*
G36*
X96776Y17319D02*
X96718D01*
X96703Y17315D01*
X96663Y17311D01*
X96616Y17297D01*
X96558Y17279D01*
X96496Y17246D01*
X96434Y17206D01*
X96405Y17177D01*
X96376Y17148D01*
Y17144D01*
X96368Y17140D01*
X96361Y17129D01*
X96354Y17118D01*
X96328Y17082D01*
X96303Y17031D01*
X96274Y16969D01*
X96248Y16893D01*
X96234Y16805D01*
X96226Y16711D01*
Y16707D01*
Y16700D01*
Y16689D01*
X96230Y16671D01*
Y16649D01*
X96234Y16627D01*
X96245Y16572D01*
X96263Y16511D01*
X96285Y16445D01*
X96321Y16379D01*
X96368Y16321D01*
X96376Y16314D01*
X96394Y16299D01*
X96426Y16274D01*
X96466Y16249D01*
X96521Y16219D01*
X96583Y16194D01*
X96652Y16179D01*
X96729Y16172D01*
X96750D01*
X96765Y16176D01*
X96805Y16179D01*
X96852Y16190D01*
X96911Y16208D01*
X96969Y16234D01*
X97027Y16270D01*
X97082Y16321D01*
X97089Y16329D01*
X97104Y16350D01*
X97125Y16383D01*
X97154Y16431D01*
X97180Y16489D01*
X97202Y16558D01*
X97216Y16642D01*
X97224Y16736D01*
Y16740D01*
Y16747D01*
Y16762D01*
X97220Y16780D01*
Y16805D01*
X97216Y16831D01*
X97206Y16889D01*
X97191Y16958D01*
X97165Y17031D01*
X97129Y17100D01*
X97082Y17162D01*
Y17166D01*
X97074Y17169D01*
X97056Y17188D01*
X97027Y17213D01*
X96987Y17242D01*
X96936Y17268D01*
X96878Y17293D01*
X96812Y17311D01*
X96776Y17319D01*
D02*
G37*
G36*
X94628Y17282D02*
X93835D01*
Y16449D01*
X94585D01*
X94628Y16452D01*
X94679Y16456D01*
X94737Y16460D01*
X94796Y16467D01*
X94854Y16478D01*
X94905Y16492D01*
X94912Y16496D01*
X94927Y16503D01*
X94949Y16514D01*
X94978Y16529D01*
X95011Y16551D01*
X95043Y16576D01*
X95076Y16609D01*
X95101Y16645D01*
X95105Y16649D01*
X95113Y16663D01*
X95123Y16685D01*
X95138Y16714D01*
X95149Y16747D01*
X95160Y16783D01*
X95167Y16827D01*
X95171Y16871D01*
Y16874D01*
Y16878D01*
X95167Y16900D01*
X95163Y16933D01*
X95156Y16976D01*
X95138Y17020D01*
X95116Y17071D01*
X95083Y17118D01*
X95040Y17166D01*
X95032Y17169D01*
X95014Y17184D01*
X94985Y17202D01*
X94938Y17224D01*
X94883Y17246D01*
X94810Y17264D01*
X94727Y17279D01*
X94628Y17282D01*
D02*
G37*
G36*
Y66282D02*
X93835D01*
Y65449D01*
X94585D01*
X94628Y65452D01*
X94679Y65456D01*
X94737Y65460D01*
X94796Y65467D01*
X94854Y65478D01*
X94905Y65492D01*
X94912Y65496D01*
X94927Y65503D01*
X94949Y65514D01*
X94978Y65529D01*
X95011Y65551D01*
X95043Y65576D01*
X95076Y65609D01*
X95101Y65645D01*
X95105Y65649D01*
X95113Y65663D01*
X95123Y65685D01*
X95138Y65714D01*
X95149Y65747D01*
X95160Y65784D01*
X95167Y65827D01*
X95171Y65871D01*
Y65874D01*
Y65878D01*
X95167Y65900D01*
X95163Y65933D01*
X95156Y65977D01*
X95138Y66020D01*
X95116Y66071D01*
X95083Y66118D01*
X95040Y66166D01*
X95032Y66169D01*
X95014Y66184D01*
X94985Y66202D01*
X94938Y66224D01*
X94883Y66246D01*
X94810Y66264D01*
X94727Y66279D01*
X94628Y66282D01*
D02*
G37*
G36*
X96736Y66319D02*
X96707D01*
X96674Y66311D01*
X96630Y66304D01*
X96583Y66290D01*
X96532Y66271D01*
X96485Y66242D01*
X96437Y66202D01*
X96434Y66198D01*
X96419Y66184D01*
X96401Y66158D01*
X96383Y66126D01*
X96361Y66086D01*
X96343Y66038D01*
X96328Y65987D01*
X96325Y65929D01*
Y65926D01*
Y65922D01*
X96328Y65900D01*
X96332Y65867D01*
X96339Y65827D01*
X96354Y65780D01*
X96372Y65733D01*
X96401Y65682D01*
X96437Y65638D01*
X96441Y65634D01*
X96459Y65620D01*
X96485Y65601D01*
X96517Y65583D01*
X96561Y65561D01*
X96612Y65543D01*
X96670Y65529D01*
X96736Y65525D01*
X96743D01*
X96765Y65529D01*
X96798Y65532D01*
X96842Y65540D01*
X96889Y65554D01*
X96936Y65572D01*
X96987Y65601D01*
X97031Y65638D01*
X97034Y65642D01*
X97049Y65660D01*
X97067Y65682D01*
X97089Y65714D01*
X97111Y65754D01*
X97129Y65802D01*
X97144Y65856D01*
X97147Y65915D01*
Y65918D01*
Y65922D01*
Y65944D01*
X97140Y65977D01*
X97133Y66017D01*
X97118Y66060D01*
X97096Y66107D01*
X97067Y66155D01*
X97027Y66202D01*
X97023Y66206D01*
X97005Y66220D01*
X96980Y66238D01*
X96947Y66260D01*
X96903Y66282D01*
X96856Y66300D01*
X96798Y66315D01*
X96736Y66319D01*
D02*
G37*
G36*
X96725Y65274D02*
X96703D01*
X96689Y65270D01*
X96649Y65267D01*
X96598Y65256D01*
X96539Y65237D01*
X96481Y65212D01*
X96419Y65176D01*
X96365Y65128D01*
X96357Y65121D01*
X96343Y65103D01*
X96321Y65070D01*
X96295Y65030D01*
X96266Y64976D01*
X96245Y64914D01*
X96230Y64844D01*
X96223Y64768D01*
Y64761D01*
Y64746D01*
X96226Y64721D01*
X96230Y64688D01*
X96237Y64648D01*
X96248Y64604D01*
X96263Y64561D01*
X96281Y64513D01*
X96285Y64510D01*
X96292Y64491D01*
X96306Y64469D01*
X96328Y64444D01*
X96354Y64411D01*
X96386Y64378D01*
X96423Y64349D01*
X96466Y64320D01*
X96474Y64317D01*
X96488Y64309D01*
X96514Y64298D01*
X96547Y64288D01*
X96587Y64277D01*
X96634Y64266D01*
X96685Y64258D01*
X96736Y64255D01*
X96758D01*
X96772Y64258D01*
X96816Y64262D01*
X96867Y64273D01*
X96925Y64291D01*
X96987Y64313D01*
X97045Y64349D01*
X97104Y64397D01*
X97111Y64404D01*
X97125Y64422D01*
X97151Y64455D01*
X97176Y64495D01*
X97202Y64546D01*
X97227Y64608D01*
X97242Y64681D01*
X97249Y64757D01*
Y64761D01*
Y64768D01*
Y64779D01*
X97246Y64793D01*
X97242Y64833D01*
X97231Y64888D01*
X97213Y64943D01*
X97187Y65005D01*
X97151Y65066D01*
X97100Y65125D01*
X97093Y65132D01*
X97074Y65147D01*
X97042Y65172D01*
X96998Y65201D01*
X96943Y65227D01*
X96878Y65252D01*
X96805Y65267D01*
X96725Y65274D01*
D02*
G37*
G36*
X94628Y29532D02*
X93835D01*
Y28699D01*
X94585D01*
X94628Y28702D01*
X94679Y28706D01*
X94737Y28710D01*
X94796Y28717D01*
X94854Y28728D01*
X94905Y28742D01*
X94912Y28746D01*
X94927Y28753D01*
X94949Y28764D01*
X94978Y28779D01*
X95011Y28801D01*
X95043Y28826D01*
X95076Y28859D01*
X95101Y28895D01*
X95105Y28899D01*
X95113Y28913D01*
X95123Y28935D01*
X95138Y28964D01*
X95149Y28997D01*
X95160Y29034D01*
X95167Y29077D01*
X95171Y29121D01*
Y29125D01*
Y29128D01*
X95167Y29150D01*
X95163Y29183D01*
X95156Y29226D01*
X95138Y29270D01*
X95116Y29321D01*
X95083Y29368D01*
X95040Y29416D01*
X95032Y29419D01*
X95014Y29434D01*
X94985Y29452D01*
X94938Y29474D01*
X94883Y29496D01*
X94810Y29514D01*
X94727Y29529D01*
X94628Y29532D01*
D02*
G37*
G36*
X129782Y71202D02*
X128949D01*
Y70453D01*
X128952Y70409D01*
X128956Y70358D01*
X128960Y70300D01*
X128967Y70241D01*
X128978Y70183D01*
X128992Y70132D01*
X128996Y70125D01*
X129003Y70110D01*
X129014Y70089D01*
X129029Y70060D01*
X129051Y70027D01*
X129076Y69994D01*
X129109Y69961D01*
X129145Y69936D01*
X129149Y69932D01*
X129163Y69925D01*
X129185Y69914D01*
X129214Y69899D01*
X129247Y69889D01*
X129284Y69877D01*
X129327Y69870D01*
X129371Y69867D01*
X129375D01*
X129378D01*
X129400Y69870D01*
X129433Y69874D01*
X129476Y69881D01*
X129520Y69899D01*
X129571Y69921D01*
X129618Y69954D01*
X129666Y69998D01*
X129669Y70005D01*
X129684Y70023D01*
X129702Y70052D01*
X129724Y70100D01*
X129746Y70154D01*
X129764Y70227D01*
X129779Y70311D01*
X129782Y70409D01*
Y71202D01*
D02*
G37*
G36*
X128785Y66853D02*
X128778D01*
X128759D01*
X128727D01*
X128683Y66849D01*
X128636D01*
X128577Y66845D01*
X128516Y66842D01*
X128450Y66834D01*
X128308Y66816D01*
X128239Y66805D01*
X128173Y66791D01*
X128112Y66776D01*
X128053Y66754D01*
X128002Y66733D01*
X127959Y66707D01*
X127955D01*
X127951Y66700D01*
X127926Y66682D01*
X127893Y66649D01*
X127857Y66609D01*
X127820Y66554D01*
X127787Y66492D01*
X127762Y66423D01*
X127758Y66387D01*
X127755Y66347D01*
Y66325D01*
X127758Y66310D01*
X127766Y66274D01*
X127780Y66223D01*
X127806Y66168D01*
X127842Y66106D01*
X127864Y66077D01*
X127893Y66048D01*
X127922Y66019D01*
X127959Y65990D01*
X127962D01*
X127970Y65983D01*
X127980Y65975D01*
X127999Y65968D01*
X128024Y65954D01*
X128057Y65943D01*
X128093Y65928D01*
X128137Y65914D01*
X128192Y65903D01*
X128250Y65888D01*
X128319Y65873D01*
X128392Y65863D01*
X128479Y65855D01*
X128570Y65848D01*
X128672Y65841D01*
X128785D01*
X128788D01*
X128792D01*
X128810D01*
X128843D01*
X128887Y65844D01*
X128934D01*
X128992Y65848D01*
X129054Y65852D01*
X129123Y65859D01*
X129262Y65877D01*
X129331Y65888D01*
X129396Y65903D01*
X129458Y65917D01*
X129516Y65939D01*
X129568Y65961D01*
X129611Y65986D01*
X129615D01*
X129618Y65994D01*
X129629Y66001D01*
X129644Y66012D01*
X129677Y66045D01*
X129717Y66085D01*
X129753Y66139D01*
X129786Y66201D01*
X129800Y66234D01*
X129811Y66270D01*
X129815Y66310D01*
X129819Y66350D01*
Y66372D01*
X129815Y66387D01*
X129808Y66427D01*
X129797Y66474D01*
X129775Y66529D01*
X129742Y66587D01*
X129720Y66616D01*
X129699Y66645D01*
X129669Y66671D01*
X129637Y66696D01*
X129633D01*
X129626Y66703D01*
X129611Y66711D01*
X129593Y66722D01*
X129564Y66733D01*
X129531Y66747D01*
X129491Y66758D01*
X129444Y66773D01*
X129389Y66787D01*
X129327Y66802D01*
X129258Y66816D01*
X129182Y66827D01*
X129094Y66838D01*
X129000Y66845D01*
X128898Y66849D01*
X128785Y66853D01*
D02*
G37*
G36*
X120479Y70665D02*
X118557D01*
Y70068D01*
X118561Y70043D01*
X118565Y69988D01*
X118568Y69926D01*
X118576Y69861D01*
X118587Y69795D01*
X118601Y69741D01*
X118605Y69733D01*
X118608Y69715D01*
X118619Y69690D01*
X118634Y69657D01*
X118656Y69620D01*
X118677Y69584D01*
X118703Y69548D01*
X118732Y69511D01*
X118739Y69508D01*
X118754Y69493D01*
X118779Y69471D01*
X118816Y69446D01*
X118863Y69417D01*
X118918Y69384D01*
X118980Y69355D01*
X119049Y69329D01*
X119052D01*
X119060Y69326D01*
X119071Y69322D01*
X119085Y69318D01*
X119103Y69315D01*
X119129Y69307D01*
X119154Y69300D01*
X119183Y69293D01*
X119256Y69282D01*
X119340Y69271D01*
X119435Y69264D01*
X119536Y69260D01*
X119540D01*
X119555D01*
X119573D01*
X119602Y69264D01*
X119635D01*
X119671Y69267D01*
X119715Y69271D01*
X119759Y69275D01*
X119857Y69293D01*
X119959Y69315D01*
X120053Y69347D01*
X120101Y69369D01*
X120141Y69391D01*
X120144D01*
X120152Y69398D01*
X120163Y69406D01*
X120177Y69413D01*
X120214Y69442D01*
X120257Y69478D01*
X120305Y69526D01*
X120352Y69580D01*
X120392Y69642D01*
X120425Y69708D01*
X120428Y69715D01*
X120432Y69733D01*
X120443Y69766D01*
X120454Y69813D01*
X120461Y69872D01*
X120472Y69944D01*
X120476Y69988D01*
Y70035D01*
X120479Y70083D01*
Y70665D01*
D02*
G37*
G36*
X163665Y47051D02*
X162915D01*
X162872Y47048D01*
X162821Y47044D01*
X162762Y47040D01*
X162704Y47033D01*
X162646Y47022D01*
X162595Y47008D01*
X162588Y47004D01*
X162573Y46997D01*
X162551Y46986D01*
X162522Y46971D01*
X162489Y46949D01*
X162457Y46924D01*
X162424Y46891D01*
X162398Y46855D01*
X162395Y46851D01*
X162388Y46837D01*
X162377Y46815D01*
X162362Y46786D01*
X162351Y46753D01*
X162340Y46716D01*
X162333Y46673D01*
X162329Y46629D01*
Y46625D01*
Y46622D01*
X162333Y46600D01*
X162337Y46567D01*
X162344Y46523D01*
X162362Y46480D01*
X162384Y46429D01*
X162417Y46382D01*
X162460Y46334D01*
X162468Y46331D01*
X162486Y46316D01*
X162515Y46298D01*
X162562Y46276D01*
X162617Y46254D01*
X162690Y46236D01*
X162773Y46221D01*
X162872Y46218D01*
X163665D01*
Y47051D01*
D02*
G37*
G36*
Y54095D02*
X162915D01*
X162872Y54091D01*
X162821Y54088D01*
X162762Y54084D01*
X162704Y54077D01*
X162646Y54066D01*
X162595Y54051D01*
X162588Y54048D01*
X162573Y54040D01*
X162551Y54030D01*
X162522Y54015D01*
X162489Y53993D01*
X162457Y53968D01*
X162424Y53935D01*
X162398Y53898D01*
X162395Y53895D01*
X162388Y53880D01*
X162377Y53858D01*
X162362Y53829D01*
X162351Y53796D01*
X162340Y53760D01*
X162333Y53716D01*
X162329Y53673D01*
Y53669D01*
Y53666D01*
X162333Y53644D01*
X162337Y53611D01*
X162344Y53567D01*
X162362Y53523D01*
X162384Y53473D01*
X162417Y53425D01*
X162460Y53378D01*
X162468Y53374D01*
X162486Y53360D01*
X162515Y53342D01*
X162562Y53320D01*
X162617Y53298D01*
X162690Y53280D01*
X162773Y53265D01*
X162872Y53261D01*
X163665D01*
Y54095D01*
D02*
G37*
G36*
X180739Y20665D02*
X179905D01*
Y19915D01*
X179909Y19872D01*
X179912Y19821D01*
X179916Y19762D01*
X179923Y19704D01*
X179934Y19646D01*
X179949Y19595D01*
X179952Y19588D01*
X179960Y19573D01*
X179971Y19551D01*
X179985Y19522D01*
X180007Y19489D01*
X180032Y19457D01*
X180065Y19424D01*
X180102Y19398D01*
X180105Y19395D01*
X180120Y19387D01*
X180142Y19377D01*
X180171Y19362D01*
X180203Y19351D01*
X180240Y19340D01*
X180283Y19333D01*
X180327Y19329D01*
X180331D01*
X180334D01*
X180356Y19333D01*
X180389Y19336D01*
X180433Y19344D01*
X180476Y19362D01*
X180527Y19384D01*
X180575Y19417D01*
X180622Y19460D01*
X180626Y19468D01*
X180640Y19486D01*
X180658Y19515D01*
X180680Y19562D01*
X180702Y19617D01*
X180720Y19690D01*
X180735Y19773D01*
X180739Y19872D01*
Y20665D01*
D02*
G37*
G36*
X177112Y67150D02*
X175984D01*
X177112Y66356D01*
Y67150D01*
D02*
G37*
G36*
X176173Y65421D02*
X176169D01*
X176165D01*
X176144Y65417D01*
X176111Y65413D01*
X176067Y65406D01*
X176023Y65388D01*
X175973Y65366D01*
X175925Y65333D01*
X175878Y65290D01*
X175874Y65282D01*
X175860Y65264D01*
X175841Y65235D01*
X175820Y65188D01*
X175798Y65133D01*
X175780Y65060D01*
X175765Y64977D01*
X175761Y64878D01*
Y64085D01*
X176595D01*
Y64835D01*
X176591Y64878D01*
X176588Y64929D01*
X176584Y64987D01*
X176577Y65046D01*
X176566Y65104D01*
X176551Y65155D01*
X176548Y65162D01*
X176540Y65177D01*
X176530Y65199D01*
X176515Y65228D01*
X176493Y65260D01*
X176468Y65293D01*
X176435Y65326D01*
X176398Y65351D01*
X176395Y65355D01*
X176380Y65362D01*
X176358Y65373D01*
X176329Y65388D01*
X176296Y65399D01*
X176260Y65410D01*
X176216Y65417D01*
X176173Y65421D01*
D02*
G37*
%LPD*%
D11*
X88267Y42650D02*
X98733D01*
Y36350D02*
Y42650D01*
X88267Y36350D02*
X98733D01*
X88267D02*
Y42650D01*
Y54900D02*
X98733D01*
Y48600D02*
Y54900D01*
X88267Y48600D02*
X98733D01*
X88267D02*
Y54900D01*
Y18150D02*
X98733D01*
Y11850D02*
Y18150D01*
X88267Y11850D02*
X98733D01*
X88267D02*
Y18150D01*
Y67150D02*
X98733D01*
Y60850D02*
Y67150D01*
X88267Y60850D02*
X98733D01*
X88267D02*
Y67150D01*
Y30400D02*
X98733D01*
Y24100D02*
Y30400D01*
X88267Y24100D02*
X98733D01*
X88267D02*
Y30400D01*
X132532Y63061D02*
Y80014D01*
X122468Y63061D02*
X132532D01*
X122468D02*
Y80014D01*
X132532D01*
X120575Y67654D02*
Y74347D01*
X117425Y67654D02*
X120575D01*
X117425D02*
Y74347D01*
X120575D01*
X170634Y15201D02*
Y27799D01*
X162366Y15201D02*
X170634D01*
X162366D02*
Y27799D01*
X170634D01*
X157701Y45449D02*
X170299D01*
X157701D02*
Y51551D01*
X170299D01*
Y45449D02*
Y51551D01*
X143866Y65201D02*
Y77799D01*
X152134D01*
Y65201D02*
Y77799D01*
X143866Y65201D02*
X152134D01*
X170299Y52449D02*
Y58551D01*
X157701D02*
X170299D01*
X157701Y52449D02*
Y58551D01*
Y52449D02*
X170299D01*
X175252Y26327D02*
X181748D01*
X175252Y15673D02*
Y26327D01*
Y15673D02*
X181748D01*
Y26327D01*
X174752Y58423D02*
X181248D01*
Y69077D01*
X174752D02*
X181248D01*
X174752Y58423D02*
Y69077D01*
M02*
