G04*
G04 #@! TF.GenerationSoftware,Altium Limited,Altium Designer,26.3.0 (6)*
G04*
G04 Layer_Physical_Order=3*
G04 Layer_Color=16440176*
%FSLAX25Y25*%
%MOIN*%
G70*
G04*
G04 #@! TF.SameCoordinates,9AFBF1FA-C3BB-45B3-99B6-A969387FD467*
G04*
G04*
G04 #@! TF.FilePolarity,Positive*
G04*
G01*
G75*
%ADD13C,0.01000*%
%ADD42C,0.02600*%
%ADD47C,0.02000*%
%ADD49C,0.02500*%
%ADD50C,0.03000*%
%ADD51C,0.02362*%
%ADD52C,0.06000*%
G36*
X105500Y8500D02*
X96000D01*
Y67000D01*
X105500D01*
Y8500D01*
D02*
G37*
G36*
X149000Y44000D02*
X160000Y33000D01*
X188500D01*
X188500Y27500D01*
X146500D01*
X146000Y28000D01*
Y44500D01*
X149000D01*
Y44000D01*
D02*
G37*
D13*
X116000Y34500D02*
Y57000D01*
D42*
X199295Y40168D02*
D03*
Y62924D02*
D03*
D47*
X185500Y30000D02*
Y30098D01*
X187500Y32098D01*
Y62500D01*
D49*
X128500Y55500D02*
X143500D01*
X119000Y65000D02*
X128500Y55500D01*
D50*
X137500Y61500D02*
X139500Y59500D01*
X145743D01*
X147500Y57743D01*
Y43000D02*
Y57743D01*
X161000Y29500D02*
X161500Y30000D01*
X101788Y15212D02*
X102000Y15000D01*
Y10500D02*
X126000D01*
X92000D02*
X102000D01*
X79000Y23500D02*
X92000Y10500D01*
X126000D02*
X141000Y25500D01*
X79000Y23500D02*
Y39500D01*
X141000Y25500D02*
Y27500D01*
D51*
X179000Y11000D02*
D03*
X166500Y10500D02*
D03*
X128500Y25000D02*
D03*
X131500Y22500D02*
D03*
X187500Y62500D02*
D03*
X143500Y55500D02*
D03*
X116000Y57000D02*
D03*
X137500Y61500D02*
D03*
X119000Y65000D02*
D03*
X101500Y76000D02*
D03*
X138000Y82000D02*
D03*
X148000Y80000D02*
D03*
X166500Y75500D02*
D03*
X178000Y72000D02*
D03*
X187000Y68500D02*
D03*
X154500Y11000D02*
D03*
X173500Y37500D02*
D03*
X185500Y30000D02*
D03*
X161000Y29500D02*
D03*
X116000Y34500D02*
D03*
X75177Y30677D02*
D03*
X75319Y35500D02*
D03*
X112000Y22319D02*
D03*
X101788Y28469D02*
D03*
X102000Y10500D02*
D03*
Y47500D02*
D03*
Y39500D02*
D03*
Y15000D02*
D03*
Y64000D02*
D03*
X109500Y18000D02*
D03*
X135500Y28500D02*
D03*
X141000Y27500D02*
D03*
X79000Y39500D02*
D03*
X125000Y18000D02*
D03*
X112500Y29000D02*
D03*
D52*
X197327Y34539D02*
D03*
Y68554D02*
D03*
X213665Y34538D02*
D03*
Y68555D02*
D03*
M02*
