G04*
G04 #@! TF.GenerationSoftware,Altium Limited,Altium Designer,26.3.0 (6)*
G04*
G04 Layer_Color=16711935*
%FSLAX25Y25*%
%MOIN*%
G70*
G04*
G04 #@! TF.SameCoordinates,9AFBF1FA-C3BB-45B3-99B6-A969387FD467*
G04*
G04*
G04 #@! TF.FilePolarity,Positive*
G04*
G01*
G75*
%ADD11C,0.00787*%
%ADD12C,0.00500*%
%ADD47C,0.02000*%
%ADD53C,0.00100*%
%ADD54C,0.00394*%
D11*
X172697Y34303D02*
G03*
X172697Y34303I-394J0D01*
G01*
X89563Y41961D02*
X97437D01*
Y37039D02*
Y41961D01*
X89563Y37039D02*
X97437D01*
X89563D02*
Y41961D01*
Y54211D02*
X97437D01*
Y49289D02*
Y54211D01*
X89563Y49289D02*
X97437D01*
X89563D02*
Y54211D01*
Y17461D02*
X97437D01*
Y12539D02*
Y17461D01*
X89563Y12539D02*
X97437D01*
X89563D02*
Y17461D01*
Y66461D02*
X97437D01*
Y61539D02*
Y66461D01*
X89563Y61539D02*
X97437D01*
X89563D02*
Y66461D01*
Y29711D02*
X97437D01*
Y24789D02*
Y29711D01*
X89563Y24789D02*
X97437D01*
X89563D02*
Y29711D01*
X129961Y67600D02*
Y75474D01*
X125039Y67600D02*
X129961D01*
X125039D02*
Y75474D01*
X129961D01*
X120181Y68835D02*
Y73165D01*
X117819Y68835D02*
X120181D01*
X117819D02*
Y73165D01*
X120181D01*
X169354Y17169D02*
Y25831D01*
X163646Y17169D02*
X169354D01*
X163646D02*
Y25831D01*
X169354D01*
X159866Y45842D02*
X168134D01*
X159866D02*
Y51157D01*
X168134D01*
Y45842D02*
Y51157D01*
X145146Y67169D02*
Y75831D01*
X150854D01*
Y67169D02*
Y75831D01*
X145146Y67169D02*
X150854D01*
X168134Y52842D02*
Y58157D01*
X159866D02*
X168134D01*
X159866Y52842D02*
Y58157D01*
Y52842D02*
X168134D01*
X176039Y24937D02*
X180961D01*
X176039Y17063D02*
Y24937D01*
Y17063D02*
X180961D01*
Y24937D01*
X175539Y59813D02*
X180461D01*
Y67687D01*
X175539D02*
X180461D01*
X175539Y59813D02*
Y67687D01*
D12*
X160886Y31547D02*
X166398D01*
X160886D02*
Y43358D01*
X166398D01*
Y31547D02*
Y43358D01*
D47*
X186500Y38317D02*
G03*
X186500Y38317I-1500J0D01*
G01*
D53*
X223900Y33946D02*
Y69147D01*
X195000D02*
X223900D01*
X195000Y33946D02*
Y69147D01*
Y33946D02*
X223900D01*
D54*
X108146Y76331D02*
X113854D01*
X108146Y67669D02*
X113854D01*
Y76331D01*
X108146Y67669D02*
Y76331D01*
X157354Y16732D02*
Y25394D01*
X151646Y16732D02*
Y25394D01*
X157354D01*
X151646Y16732D02*
X157354D01*
X135251Y67368D02*
Y76029D01*
X140960Y67368D02*
Y76029D01*
X135251Y67368D02*
X140960D01*
X135251Y76029D02*
X140960D01*
X155146Y67368D02*
Y76029D01*
X160854Y67368D02*
Y76029D01*
X155146Y67368D02*
X160854D01*
X155146Y76029D02*
X160854D01*
M02*
