G04*
G04 #@! TF.GenerationSoftware,Altium Limited,Altium Designer,26.3.0 (6)*
G04*
G04 Layer_Color=128*
%FSLAX25Y25*%
%MOIN*%
G70*
G04*
G04 #@! TF.SameCoordinates,9AFBF1FA-C3BB-45B3-99B6-A969387FD467*
G04*
G04*
G04 #@! TF.FilePolarity,Positive*
G04*
G01*
G75*
%ADD12C,0.00500*%
D12*
X197995Y40168D02*
X200595D01*
X199295Y38868D02*
Y41469D01*
X197995Y62924D02*
X200595D01*
X199295Y61624D02*
Y64224D01*
X196146Y34539D02*
X198508D01*
X197327Y33358D02*
Y35720D01*
X196146Y68554D02*
X198508D01*
X197327Y67373D02*
Y69735D01*
X212484Y34538D02*
X214846D01*
X213665Y33357D02*
Y35720D01*
X212484Y68555D02*
X214846D01*
X213665Y67373D02*
Y69736D01*
X178409Y11000D02*
X179591D01*
X179000Y10409D02*
Y11591D01*
X165909Y10500D02*
X167091D01*
X166500Y9909D02*
Y11091D01*
X127909Y25000D02*
X129091D01*
X128500Y24409D02*
Y25591D01*
X130909Y22500D02*
X132091D01*
X131500Y21910D02*
Y23090D01*
X186909Y62500D02*
X188091D01*
X187500Y61910D02*
Y63090D01*
X142909Y55500D02*
X144091D01*
X143500Y54909D02*
Y56090D01*
X115409Y57000D02*
X116591D01*
X116000Y56410D02*
Y57591D01*
X136909Y61500D02*
X138091D01*
X137500Y60909D02*
Y62090D01*
X118409Y65000D02*
X119591D01*
X119000Y64410D02*
Y65591D01*
X100909Y76000D02*
X102091D01*
X101500Y75410D02*
Y76591D01*
X137409Y82000D02*
X138591D01*
X138000Y81410D02*
Y82591D01*
X147409Y80000D02*
X148591D01*
X148000Y79409D02*
Y80590D01*
X165909Y75500D02*
X167091D01*
X166500Y74910D02*
Y76091D01*
X177409Y72000D02*
X178591D01*
X178000Y71409D02*
Y72591D01*
X186409Y68500D02*
X187591D01*
X187000Y67909D02*
Y69090D01*
X153909Y11000D02*
X155091D01*
X154500Y10409D02*
Y11591D01*
X172909Y37500D02*
X174091D01*
X173500Y36909D02*
Y38091D01*
X184909Y30000D02*
X186091D01*
X185500Y29409D02*
Y30591D01*
X160409Y29500D02*
X161591D01*
X161000Y28909D02*
Y30091D01*
X115409Y34500D02*
X116591D01*
X116000Y33909D02*
Y35091D01*
X74587Y30677D02*
X75768D01*
X75177Y30087D02*
Y31268D01*
X74728Y35500D02*
X75910D01*
X75319Y34909D02*
Y36091D01*
X111409Y22319D02*
X112591D01*
X112000Y21728D02*
Y22909D01*
X101198Y28469D02*
X102379D01*
X101788Y27879D02*
Y29060D01*
X101409Y10500D02*
X102591D01*
X102000Y9909D02*
Y11091D01*
X101409Y47500D02*
X102591D01*
X102000Y46909D02*
Y48091D01*
X101409Y39500D02*
X102591D01*
X102000Y38909D02*
Y40091D01*
X101409Y15000D02*
X102591D01*
X102000Y14410D02*
Y15590D01*
X101409Y64000D02*
X102591D01*
X102000Y63410D02*
Y64591D01*
X108909Y18000D02*
X110091D01*
X109500Y17410D02*
Y18590D01*
X134909Y28500D02*
X136091D01*
X135500Y27909D02*
Y29091D01*
X140409Y27500D02*
X141591D01*
X141000Y26909D02*
Y28091D01*
X78409Y39500D02*
X79590D01*
X79000Y38909D02*
Y40091D01*
X124409Y18000D02*
X125591D01*
X125000Y17410D02*
Y18590D01*
X111909Y29000D02*
X113091D01*
X112500Y28409D02*
Y29591D01*
M02*
